<svg width="17" height="16" viewBox="0 0 17 16" fill="none" xmlns="http://www.w3.org/2000/svg">
<g id="Frame">
<path id="Vector" d="M13.5 9V8.99994C13.5025 9.41744 13.2412 9.79119 12.8487 9.93369L9.62499 11.1249L8.43749 14.3512C8.24749 14.8668 7.67561 15.1306 7.15999 14.9412C6.88624 14.8399 6.67061 14.6243 6.56936 14.3506L5.37436 11.1243L2.14811 9.93681H2.14805C1.6318 9.74681 1.36805 9.17494 1.55742 8.65931C1.65805 8.38556 1.87367 8.16994 2.14742 8.06869L5.37367 6.87369L6.56117 3.64744C6.75055 3.13119 7.32242 2.86738 7.83805 3.05675C8.11117 3.15738 8.3268 3.373 8.42805 3.64675L9.62305 6.873L12.8493 8.0605C13.2424 8.20363 13.5024 8.57925 13.498 8.998L13.5 9ZM9.99999 3H11V4C11 4.27562 11.2237 4.5 11.5 4.5C11.7756 4.5 12 4.27562 12 4V3H13C13.2756 3 13.5 2.77562 13.5 2.5C13.5 2.22375 13.2756 2 13 2H12V1C12 0.72375 11.7756 0.5 11.5 0.5C11.2237 0.5 11 0.72375 11 1V2H9.99999C9.72374 2 9.49999 2.22375 9.49999 2.5C9.49999 2.77562 9.72374 3 9.99999 3ZM15.5 5H15V4.5C15 4.22375 14.7756 4 14.5 4C14.2237 4 14 4.22375 14 4.5V5H13.5C13.2237 5 13 5.22375 13 5.5C13 5.77563 13.2237 6 13.5 6H14V6.5C14 6.77563 14.2237 7 14.5 7C14.7756 7 15 6.77563 15 6.5V6H15.5C15.7756 6 16 5.77563 16 5.5C16 5.22375 15.7756 5 15.5 5Z" fill="#3B82F6"/>
</g>
</svg>
