<svg width="16" height="16" viewBox="0 0 16 16" fill="none" xmlns="http://www.w3.org/2000/svg">
<g id="Frame">
<path id="Vector" d="M7.99999 3.33351C8.44666 3.33351 8.89999 3.39351 9.33332 3.50684C10.52 2.17351 12.6867 1.61351 13.6133 2.00018C14.5467 2.38684 13.3333 6.66684 13.3333 6.66684C13.7133 7.38018 14 8.16018 14 8.96018C14 11.9335 11.3133 14.0002 7.99999 14.0002C4.68666 14.0002 1.99999 12.0002 1.99999 8.96018C1.99999 8.12684 2.33332 7.36018 2.66666 6.66684C2.66666 6.66684 1.40666 2.38684 2.33332 2.00018C3.25999 1.61351 5.47999 2.15351 6.66666 3.48684C7.10401 3.38625 7.55122 3.33482 7.99999 3.33351Z" stroke="#FFB700" stroke-width="1.33333" stroke-linecap="round" stroke-linejoin="round"/>
<path id="Vector_2" d="M5.33334 9.33301V9.66634" stroke="#FFB700" stroke-width="1.33333" stroke-linecap="round" stroke-linejoin="round"/>
<path id="Vector_3" d="M10.6667 9.33301V9.66634" stroke="#FFB700" stroke-width="1.33333" stroke-linecap="round" stroke-linejoin="round"/>
<path id="Vector_4" d="M7.5 10.833H8.5L8 11.333L7.5 10.833Z" stroke="#FFB700" stroke-width="1.33333" stroke-linecap="round" stroke-linejoin="round"/>
</g>
</svg>
