<svg width="16" height="16" viewBox="0 0 16 16" fill="none" xmlns="http://www.w3.org/2000/svg">
<g id="Frame" clip-path="url(#clip0_1270_5570)">
<path id="Vector" d="M5.33333 9.33301C7.54247 9.33301 9.33333 7.54215 9.33333 5.33301C9.33333 3.12387 7.54247 1.33301 5.33333 1.33301C3.12419 1.33301 1.33333 3.12387 1.33333 5.33301C1.33333 7.54215 3.12419 9.33301 5.33333 9.33301Z" stroke="#00FFAE" stroke-width="1.33333" stroke-linecap="round" stroke-linejoin="round"/>
<path id="Vector_2" d="M12.06 6.91309C12.6902 7.14804 13.251 7.53811 13.6905 8.04722C14.13 8.55633 14.434 9.16805 14.5745 9.8258C14.7149 10.4835 14.6873 11.1661 14.494 11.8103C14.3008 12.4545 13.9482 13.0396 13.4689 13.5115C12.9897 13.9834 12.3991 14.3267 11.752 14.5099C11.1048 14.6931 10.4219 14.7101 9.76645 14.5594C9.11097 14.4087 8.50407 14.0951 8.00188 13.6478C7.49969 13.2004 7.11842 12.6335 6.89333 11.9998" stroke="#00FFAE" stroke-width="1.33333" stroke-linecap="round" stroke-linejoin="round"/>
<path id="Vector_3" d="M4.66667 4H5.33334V6.66667" stroke="#00FFAE" stroke-width="1.33333" stroke-linecap="round" stroke-linejoin="round"/>
<path id="Vector_4" d="M11.14 9.25293L11.6067 9.72626L9.72667 11.6063" stroke="#00FFAE" stroke-width="1.33333" stroke-linecap="round" stroke-linejoin="round"/>
</g>
<defs>
<clipPath id="clip0_1270_5570">
<rect width="16" height="16" fill="white"/>
</clipPath>
</defs>
</svg>
