<svg width="16" height="16" viewBox="0 0 16 16" fill="none" xmlns="http://www.w3.org/2000/svg">
<g id="Frame">
<path id="Vector" d="M12 1.33301H4.00002C3.26364 1.33301 2.66669 1.92996 2.66669 2.66634V13.333C2.66669 14.0694 3.26364 14.6663 4.00002 14.6663H12C12.7364 14.6663 13.3334 14.0694 13.3334 13.333V2.66634C13.3334 1.92996 12.7364 1.33301 12 1.33301Z" stroke="#CC00FF" stroke-width="1.33333" stroke-linecap="round" stroke-linejoin="round"/>
<path id="Vector_2" d="M6 14.6667V12H10V14.6667" stroke="#CC00FF" stroke-width="1.33333" stroke-linecap="round" stroke-linejoin="round"/>
<path id="Vector_3" d="M5.33331 4H5.3404" stroke="#CC00FF" stroke-width="1.33333" stroke-linecap="round" stroke-linejoin="round"/>
<path id="Vector_4" d="M10.6667 4H10.6738" stroke="#CC00FF" stroke-width="1.33333" stroke-linecap="round" stroke-linejoin="round"/>
<path id="Vector_5" d="M8 4H8.00708" stroke="#CC00FF" stroke-width="1.33333" stroke-linecap="round" stroke-linejoin="round"/>
<path id="Vector_6" d="M8 6.66699H8.00708" stroke="#CC00FF" stroke-width="1.33333" stroke-linecap="round" stroke-linejoin="round"/>
<path id="Vector_7" d="M8 9.33301H8.00708" stroke="#CC00FF" stroke-width="1.33333" stroke-linecap="round" stroke-linejoin="round"/>
<path id="Vector_8" d="M10.6667 6.66699H10.6738" stroke="#CC00FF" stroke-width="1.33333" stroke-linecap="round" stroke-linejoin="round"/>
<path id="Vector_9" d="M10.6667 9.33301H10.6738" stroke="#CC00FF" stroke-width="1.33333" stroke-linecap="round" stroke-linejoin="round"/>
<path id="Vector_10" d="M5.33331 6.66699H5.3404" stroke="#CC00FF" stroke-width="1.33333" stroke-linecap="round" stroke-linejoin="round"/>
<path id="Vector_11" d="M5.33331 9.33301H5.3404" stroke="#CC00FF" stroke-width="1.33333" stroke-linecap="round" stroke-linejoin="round"/>
</g>
</svg>
