<svg xmlns="http://www.w3.org/2000/svg" width="16" height="16" viewBox="0 0 16 16" fill="none">
  <g opacity="0.7">
    <path d="M14.1163 6.42625C13.8806 6.18 13.6369 5.92625 13.545 5.70312C13.46 5.49875 13.455 5.16 13.45 4.83187C13.4406 4.22187 13.4306 3.53062 12.95 3.05C12.4694 2.56937 11.7781 2.55937 11.1681 2.55C10.84 2.545 10.5013 2.54 10.2969 2.455C10.0744 2.36312 9.82 2.11937 9.57375 1.88375C9.1425 1.46937 8.6525 1 8 1C7.3475 1 6.85812 1.46937 6.42625 1.88375C6.18 2.11937 5.92625 2.36312 5.70312 2.455C5.5 2.54 5.16 2.545 4.83187 2.55C4.22187 2.55937 3.53062 2.56937 3.05 3.05C2.56937 3.53062 2.5625 4.22187 2.55 4.83187C2.545 5.16 2.54 5.49875 2.455 5.70312C2.36312 5.92562 2.11937 6.18 1.88375 6.42625C1.46937 6.8575 1 7.3475 1 8C1 8.6525 1.46937 9.14187 1.88375 9.57375C2.11937 9.82 2.36312 10.0737 2.455 10.2969C2.54 10.5013 2.545 10.84 2.55 11.1681C2.55937 11.7781 2.56937 12.4694 3.05 12.95C3.53062 13.4306 4.22187 13.4406 4.83187 13.45C5.16 13.455 5.49875 13.46 5.70312 13.545C5.92562 13.6369 6.18 13.8806 6.42625 14.1163C6.8575 14.5306 7.3475 15 8 15C8.6525 15 9.14187 14.5306 9.57375 14.1163C9.82 13.8806 10.0737 13.6369 10.2969 13.545C10.5013 13.46 10.84 13.455 11.1681 13.45C11.7781 13.4406 12.4694 13.4306 12.95 12.95C13.4306 12.4694 13.4406 11.7781 13.45 11.1681C13.455 10.84 13.46 10.5013 13.545 10.2969C13.6369 10.0744 13.8806 9.82 14.1163 9.57375C14.5306 9.1425 15 8.6525 15 8C15 7.3475 14.5306 6.85812 14.1163 6.42625ZM13.3944 8.88188C13.095 9.19438 12.785 9.5175 12.6206 9.91438C12.4631 10.2956 12.4563 10.7312 12.45 11.1531C12.4437 11.5906 12.4369 12.0487 12.2425 12.2425C12.0481 12.4363 11.5931 12.4437 11.1531 12.45C10.7312 12.4563 10.2956 12.4631 9.91438 12.6206C9.5175 12.785 9.19438 13.095 8.88188 13.3944C8.56938 13.6937 8.25 14 8 14C7.75 14 7.42812 13.6925 7.11812 13.3944C6.80813 13.0962 6.4825 12.785 6.08563 12.6206C5.70438 12.4631 5.26875 12.4563 4.84688 12.45C4.40938 12.4437 3.95125 12.4369 3.7575 12.2425C3.56375 12.0481 3.55625 11.5931 3.55 11.1531C3.54375 10.7312 3.53688 10.2956 3.37937 9.91438C3.215 9.5175 2.905 9.19438 2.60562 8.88188C2.30625 8.56938 2 8.25 2 8C2 7.75 2.3075 7.42812 2.60562 7.11812C2.90375 6.80813 3.215 6.4825 3.37937 6.08563C3.53688 5.70438 3.54375 5.26875 3.55 4.84688C3.55625 4.40938 3.56312 3.95125 3.7575 3.7575C3.95187 3.56375 4.40688 3.55625 4.84688 3.55C5.26875 3.54375 5.70438 3.53688 6.08563 3.37937C6.4825 3.215 6.80562 2.905 7.11812 2.60562C7.43062 2.30625 7.75 2 8 2C8.25 2 8.57188 2.3075 8.88188 2.60562C9.19188 2.90375 9.5175 3.215 9.91438 3.37937C10.2956 3.53688 10.7312 3.54375 11.1531 3.55C11.5906 3.55625 12.0487 3.56312 12.2425 3.7575C12.4363 3.95187 12.4437 4.40688 12.45 4.84688C12.4563 5.26875 12.4631 5.70438 12.6206 6.08563C12.785 6.4825 13.095 6.80562 13.3944 7.11812C13.6937 7.43062 14 7.75 14 8C14 8.25 13.6925 8.57188 13.3944 8.88188ZM8.75 11.25C8.75 11.6637 8.41375 12 8 12C7.58563 12 7.25 11.6637 7.25 11.25C7.25 10.8356 7.58563 10.5 8 10.5C8.41375 10.5 8.75 10.8356 8.75 11.25ZM10.5 6.75C10.5 7.83625 9.64 8.74563 8.5 8.955V9C8.5 9.27563 8.27563 9.5 8 9.5C7.72375 9.5 7.5 9.27563 7.5 9V8.5C7.5 8.22375 7.72375 8 8 8C8.82687 8 9.5 7.4375 9.5 6.75C9.5 6.0625 8.82687 5.5 8 5.5C7.17313 5.5 6.5 6.0625 6.5 6.75V7C6.5 7.27563 6.27563 7.5 6 7.5C5.72375 7.5 5.5 7.27563 5.5 7V6.75C5.5 5.50938 6.62125 4.5 8 4.5C9.37875 4.5 10.5 5.50938 10.5 6.75Z" fill="white"/>
  </g>
</svg>