<svg xmlns="http://www.w3.org/2000/svg" width="16" height="16" viewBox="0 0 16 16" fill="none">
  <g opacity="0.7">
    <path d="M1.33398 8.90625H12.6673C12.9406 8.90625 13.1673 8.67958 13.1673 8.40625C13.1673 8.12625 12.9406 7.90625 12.6673 7.90625H1.33398C1.05398 7.90625 0.833984 8.12625 0.833984 8.40625C0.833984 8.67958 1.05398 8.90625 1.33398 8.90625Z" fill="white"/>
    <path d="M12.1681 6.85288V11.6195C12.1481 13.2262 11.8615 13.4995 10.1481 13.4995H3.85479C2.11479 13.4995 1.82812 13.2195 1.82812 11.5129V6.84621C1.82812 5.26621 2.08146 4.94621 3.35479 4.86621C3.56146 4.85288 3.69479 4.85288 3.84146 4.85288H10.1281C11.8615 4.85288 12.1481 5.12621 12.1481 6.83288L12.1681 6.85288ZM13.1681 6.85288C13.1681 4.58621 12.4348 3.86621 10.1481 3.86621H3.85479C3.68813 3.86621 3.54146 3.86621 3.30813 3.87954C1.45479 3.98621 0.828125 4.77288 0.828125 6.84621V11.5062C0.828125 13.7662 1.55479 14.4862 3.84812 14.4862H10.1348C12.3881 14.4862 13.1281 13.7862 13.1481 11.6062V6.83288L13.1681 6.85288Z" fill="white"/>
    <path d="M14.1675 4.48667V9.14667C14.1675 10.72 13.9075 11.04 12.6341 11.12L13.1608 11.6133V6.84667C13.1608 4.58 12.4275 3.86 10.1408 3.86H3.84745C3.68079 3.86 3.53412 3.86 3.30079 3.87333L3.32079 4.36667H3.81412C3.82745 2.74667 4.11412 2.48 5.83412 2.48H12.1208C13.8541 2.48 14.1408 2.75333 14.1408 4.46667L14.1675 4.48667ZM15.1675 4.48667C15.1675 2.22 14.4341 1.5 12.1475 1.5H5.85412C3.59412 1.5 2.85412 2.19333 2.83412 4.37333C2.82745 4.65333 3.06745 4.88667 3.35412 4.87333C3.56745 4.86 3.70079 4.86 3.84745 4.86H10.1341C11.8675 4.86 12.1541 5.13333 12.1541 6.84667V11.6133C12.1541 11.9 12.3941 12.1267 12.6808 12.1067C14.5208 11.9933 15.1475 11.2067 15.1475 9.13333V4.47333L15.1675 4.48667Z" fill="white"/>
    <path d="M3.50081 12.373H4.64081C4.91414 12.373 5.14081 12.1464 5.14081 11.873C5.14081 11.593 4.91414 11.373 4.64081 11.373H3.49414C3.21414 11.373 2.99414 11.593 2.99414 11.873C2.99414 12.1464 3.21414 12.373 3.49414 12.373H3.50081Z" fill="white"/>
    <path d="M6.06721 12.373H8.36055C8.63388 12.373 8.86055 12.1464 8.86055 11.873C8.86055 11.593 8.63388 11.373 8.36055 11.373H6.06055C5.78055 11.373 5.56055 11.593 5.56055 11.873C5.56055 12.1464 5.78055 12.373 6.06055 12.373H6.06721Z" fill="white"/>
  </g>
</svg>