<?xml version="1.0" encoding="UTF-8"?>
<svg width="24px" height="24px" viewBox="0 0 24 24" version="1.1" xmlns="http://www.w3.org/2000/svg">
    <path d="M12 2C6.48 2 2 6.48 2 12s4.48 10 10 10 10-4.48 10-10S17.52 2 12 2zm0 18c-4.41 0-8-3.59-8-8s3.59-8 8-8 8 3.59 8 8-3.59 8-8 8zm-5-9c.83 0 1.5-.67 1.5-1.5S7.83 8 7 8s-1.5.67-1.5 1.5S6.17 11 7 11zm10 0c.83 0 1.5-.67 1.5-1.5S17.83 8 17 8s-1.5.67-1.5 1.5.67 1.5 1.5 1.5zm-5 4c2.33 0 4.31-1.46 5.11-3.5H6.89c.8 2.04 2.78 3.5 5.11 3.5z" fill="#000000"/>
</svg> 