<svg xmlns="http://www.w3.org/2000/svg" width="16" height="16" viewBox="0 0 16 16" fill="none">
  <g opacity="0.7">
    <path d="M13.5541 5.71977V10.2731C13.5541 10.8398 13.2474 11.3664 12.7541 11.6598L8.79406 13.9398C8.30073 14.2198 7.6874 14.2198 7.1874 13.9331L3.2274 11.6464C2.73406 11.3598 2.4274 10.8331 2.4274 10.2531V5.6931C2.4274 5.11977 2.7274 4.5931 3.22073 4.29977L7.17406 2.0131C7.66073 1.72644 8.27406 1.72644 8.77406 2.0131L12.7274 4.2931C13.2207 4.57977 13.5207 5.10644 13.5207 5.67977L13.5541 5.71977ZM14.5541 5.71977C14.5541 4.78644 14.0607 3.9331 13.2541 3.46644L9.2874 1.1731C8.47406 0.706437 7.4874 0.706437 6.68073 1.16644L2.71406 3.4531C1.9074 3.91977 1.41406 4.77977 1.41406 5.69977V10.2531C1.41406 11.1798 1.9074 12.0398 2.7074 12.4998L6.66073 14.7798C7.4674 15.2398 8.45406 15.2398 9.26073 14.7798L13.2207 12.4864C14.0207 12.0131 14.5141 11.1531 14.5141 10.2331V5.6731L14.5541 5.71977Z" fill="white"/>
    <path d="M8.0006 7.83306C9.13393 7.83306 10.0539 6.91306 10.0539 5.77306C10.0539 4.63306 9.13393 3.71973 8.0006 3.71973C6.8606 3.71973 5.94727 4.63306 5.94727 5.76639C5.94727 6.89973 6.8606 7.81973 7.99393 7.81973L8.0006 7.83306ZM8.0006 6.83306C7.41393 6.83306 6.94727 6.35973 6.94727 5.77306C6.94727 5.18639 7.41393 4.71973 7.99393 4.71973C8.57393 4.71973 9.04727 5.18639 9.04727 5.76639C9.04727 6.34639 8.57393 6.81973 7.99393 6.81973L8.0006 6.83306Z" fill="white"/>
    <path d="M11.1673 11.1069C11.1673 9.60026 9.72732 8.43359 8.00065 8.43359C6.26732 8.43359 4.83398 9.60026 4.83398 11.1069C4.83398 11.3803 5.05398 11.6069 5.33398 11.6069C5.60732 11.6069 5.83398 11.3803 5.83398 11.1069C5.83398 10.2069 6.78065 9.43359 8.00065 9.43359C9.21398 9.43359 10.1673 10.2069 10.1673 11.1069C10.1673 11.3803 10.3873 11.6069 10.6673 11.6069C10.9407 11.6069 11.1673 11.3803 11.1673 11.1069Z" fill="white"/>
  </g>
</svg>