<svg xmlns="http://www.w3.org/2000/svg" width="16" height="16" viewBox="0 0 16 16" fill="none">
  <g opacity="0.7">
    <path d="M8 10.5C9.38 10.5 10.5 9.38 10.5 8C10.5 6.61333 9.38 5.5 8 5.5C6.61333 5.5 5.5 6.61333 5.5 8C5.5 9.38 6.61333 10.5 8 10.5ZM8 9.5C7.16667 9.5 6.5 8.82667 6.5 8C6.5 7.16667 7.16667 6.5 8 6.5C8.82667 6.5 9.5 7.16667 9.5 8C9.5 8.82667 8.82667 9.5 8 9.5Z" fill="white"/>
    <path d="M1.83391 8.57968V7.40635C1.83391 6.98635 2.17391 6.63968 2.60057 6.63968C4.18724 6.63968 4.92057 5.36635 4.12057 3.98635C3.90724 3.61968 4.03391 3.14635 4.40057 2.93968L5.55391 2.27302C5.84057 2.09968 6.21391 2.19968 6.39391 2.49302L6.46057 2.61302C7.24724 3.98635 8.71391 3.98635 9.51391 2.61302L9.58724 2.47968C9.75391 2.18635 10.1339 2.08635 10.4139 2.25302L11.5739 2.91302C11.9339 3.11968 12.0606 3.59301 11.8539 3.95302C11.0539 5.32635 11.7872 6.59968 13.3739 6.59968C13.7872 6.59968 14.1406 6.93968 14.1406 7.35968V8.53302C14.1406 8.94635 13.7939 9.29968 13.3739 9.29968C11.7806 9.29968 11.0472 10.5663 11.8472 11.9463C12.0539 12.3063 11.9272 12.773 11.5606 12.9863L10.4006 13.6463C10.1072 13.813 9.73391 13.713 9.55391 13.4197L9.48057 13.293C8.68724 11.913 7.22057 11.913 6.42057 13.2863L6.34057 13.413C6.16724 13.6997 5.78724 13.7997 5.50724 13.633L4.34057 12.9663C3.97391 12.753 3.84724 12.2797 4.05391 11.9197C4.84724 10.5397 4.11391 9.26635 2.52724 9.26635C2.10057 9.26635 1.76057 8.91301 1.76057 8.49968L1.83391 8.57968ZM0.833906 8.57968C0.833906 9.54635 1.62057 10.3463 2.60057 10.3463C3.42057 10.3463 3.67391 10.7797 3.26057 11.493C2.77391 12.333 3.06057 13.4197 3.90724 13.8997L5.05391 14.553C5.80724 14.9997 6.79391 14.733 7.24724 13.973L7.32057 13.8397C7.73391 13.1197 8.23391 13.1197 8.64724 13.833L8.72057 13.9597C9.17391 14.7263 10.1606 14.9863 10.9272 14.533L12.0672 13.873C12.9072 13.3863 13.2006 12.3063 12.7139 11.4597C12.2939 10.7397 12.5472 10.3063 13.3672 10.3063C14.3406 10.3063 15.1339 9.50635 15.1339 8.53968V7.36635C15.1339 6.38635 14.3339 5.59968 13.3672 5.59968C12.5406 5.59968 12.2872 5.15968 12.7006 4.44635C13.1806 3.59968 12.8939 2.51302 12.0472 2.03302L10.8939 1.37302C10.1339 0.919682 9.14724 1.18635 8.69391 1.94635L8.61391 2.07301C8.19391 2.78635 7.69391 2.78635 7.28057 2.07301L7.20057 1.93968C6.74057 1.16635 5.75391 0.906348 4.98724 1.35968L3.84057 2.01302C2.99391 2.49302 2.70057 3.57968 3.18724 4.41968C3.60057 5.12635 3.34724 5.56635 2.52057 5.56635C1.54057 5.56635 0.753906 6.35968 0.753906 7.32635V8.49968L0.833906 8.57968Z" fill="white"/>
  </g>
</svg>