<svg xmlns="http://www.w3.org/2000/svg" width="16" height="16" viewBox="0 0 16 16" fill="none">
  <g opacity="0.7">
    <path d="M11.6214 10.2408C11.4947 10.2408 11.368 10.1941 11.268 10.0941C11.0747 9.90077 11.0747 9.58077 11.268 9.38743L12.6214 8.0341L11.268 6.68077C11.0747 6.48744 11.0747 6.16743 11.268 5.9741C11.4614 5.78077 11.7814 5.78077 11.9747 5.9741L13.6814 7.6741C13.8747 7.86743 13.8747 8.18743 13.6814 8.38077L11.9747 10.0874C11.8747 10.1874 11.748 10.2341 11.6214 10.2341V10.2408Z" fill="white"/>
    <path d="M13.2808 8.54004H6.49414C6.22081 8.54004 5.99414 8.31337 5.99414 8.04004C5.99414 7.76671 6.22081 7.54004 6.49414 7.54004H13.2741C13.5475 7.54004 13.7741 7.76671 13.7741 8.04004C13.7741 8.31337 13.5475 8.54004 13.2741 8.54004H13.2808Z" fill="white"/>
    <path d="M7.83414 13.8337C4.39414 13.8337 1.99414 11.4337 1.99414 8.00033C1.99414 4.56699 4.39414 2.16699 7.82747 2.16699C8.10081 2.16699 8.32747 2.39366 8.32747 2.66699C8.32747 2.94033 8.10081 3.16699 7.82747 3.16699C4.97414 3.16699 2.98747 5.15366 2.98747 8.00033C2.98747 10.847 4.97414 12.8337 7.82081 12.8337C8.09414 12.8337 8.32081 13.0603 8.32081 13.3337C8.32081 13.607 8.09414 13.8337 7.82081 13.8337H7.83414Z" fill="white"/>
  </g>
</svg>