<svg width="17" height="16" viewBox="0 0 17 16" fill="none" xmlns="http://www.w3.org/2000/svg">
<path d="M9.19045 2.43325L8.80378 2.65325C8.38378 2.89992 8.17045 3.02659 7.93711 3.05325C7.70378 3.07992 7.47711 3.00659 7.02378 2.87325L6.61045 2.74659C5.01711 2.25325 4.21711 2.00659 3.73711 2.44659C3.25845 2.87992 3.41445 3.71325 3.72378 5.37325L3.80378 5.79992C3.89245 6.26659 3.93711 6.50659 3.88378 6.73325C3.83045 6.95992 3.68378 7.15992 3.39711 7.55992L3.13045 7.91992C2.11711 9.31992 1.61045 10.0199 1.85711 10.5999C2.10378 11.1799 2.93778 11.2533 4.60378 11.4066L5.03045 11.4466C5.50378 11.4866 5.73711 11.5066 5.93711 11.6199C6.13045 11.7333 6.27045 11.9266 6.54378 12.3066L6.79045 12.6533C7.75845 14.0099 8.23711 14.6866 8.87045 14.6066C9.49711 14.5266 9.85711 13.7399 10.5771 12.1733L10.7638 11.7666C10.8638 11.5333 10.9438 11.3666 11.0171 11.2333L14.0764 14.2933C14.2631 14.4866 14.5831 14.4933 14.7831 14.2999C14.9764 14.1066 14.9831 13.7866 14.7898 13.5866C14.7831 13.5799 14.7764 13.5733 14.7764 13.5733L11.8231 10.6133C11.9031 10.5799 11.9898 10.5466 12.0964 10.5133L12.5098 10.3666C14.1164 9.79992 14.9231 9.51992 15.0631 8.88659C15.2031 8.25325 14.5898 7.69325 13.3698 6.57325L13.0498 6.27992C12.6964 5.95992 12.5231 5.79992 12.4364 5.58659C12.3431 5.37325 12.3498 5.12659 12.3564 4.64659L12.3631 4.19992C12.3831 2.49525 12.3964 1.63992 11.8564 1.33325C11.3098 1.01992 10.5698 1.45992 9.09645 2.33325L9.19045 2.43325Z" fill="white"/>
</svg>
