<svg width="16" height="16" viewBox="0 0 16 16" fill="none" xmlns="http://www.w3.org/2000/svg">
<g id="Frame">
<path id="Vector" d="M13.3333 9.13368L11.9333 7.73368C11.6841 7.48938 11.349 7.35254 11 7.35254C10.651 7.35254 10.3159 7.48938 10.0667 7.73368L6.46667 11.3337" stroke="#00C6FF" stroke-width="1.33333" stroke-linecap="round" stroke-linejoin="round"/>
<path id="Vector_2" d="M2.66667 12.9997V2.99967C2.66667 2.55765 2.84226 2.13372 3.15482 1.82116C3.46738 1.5086 3.89131 1.33301 4.33333 1.33301H12.6667C12.8435 1.33301 13.013 1.40325 13.1381 1.52827C13.2631 1.65329 13.3333 1.82286 13.3333 1.99967V13.9997C13.3333 14.1765 13.2631 14.3461 13.1381 14.4711C13.013 14.5961 12.8435 14.6663 12.6667 14.6663H4.33333C3.89131 14.6663 3.46738 14.4907 3.15482 14.1782C2.84226 13.8656 2.66667 13.4417 2.66667 12.9997ZM2.66667 12.9997C2.66667 12.5576 2.84226 12.1337 3.15482 11.8212C3.46738 11.5086 3.89131 11.333 4.33333 11.333H13.3333" stroke="#00C6FF" stroke-width="1.33333" stroke-linecap="round" stroke-linejoin="round"/>
<path id="Vector_3" d="M6.66667 6.66667C7.40305 6.66667 8 6.06971 8 5.33333C8 4.59695 7.40305 4 6.66667 4C5.93029 4 5.33333 4.59695 5.33333 5.33333C5.33333 6.06971 5.93029 6.66667 6.66667 6.66667Z" stroke="#00C6FF" stroke-width="1.33333" stroke-linecap="round" stroke-linejoin="round"/>
</g>
</svg>
