<svg width="16" height="16" viewBox="0 0 16 16" fill="none" xmlns="http://www.w3.org/2000/svg">
<g id="Frame">
<g id="Group">
<path id="Vector" d="M13.5531 5.71977V10.2731C13.5531 10.8398 13.2464 11.3664 12.7531 11.6598L8.79309 13.9398C8.29975 14.2198 7.68642 14.2198 7.18642 13.9331L3.22642 11.6464C2.73309 11.3598 2.42642 10.8331 2.42642 10.2531V5.6931C2.42642 5.11977 2.72642 4.5931 3.21975 4.29977L7.17309 2.0131C7.65975 1.72644 8.27309 1.72644 8.77309 2.0131L12.7264 4.2931C13.2198 4.57977 13.5198 5.10644 13.5198 5.67977L13.5531 5.71977ZM14.5531 5.71977C14.5531 4.78644 14.0598 3.9331 13.2531 3.46644L9.28642 1.1731C8.47309 0.706437 7.48642 0.706437 6.67975 1.16644L2.71309 3.4531C1.90642 3.91977 1.41309 4.77977 1.41309 5.69977V10.2531C1.41309 11.1798 1.90642 12.0398 2.70642 12.4998L6.65975 14.7798C7.46642 15.2398 8.45309 15.2398 9.25975 14.7798L13.2198 12.4864C14.0198 12.0131 14.5131 11.1531 14.5131 10.2331V5.6731L14.5531 5.71977Z" fill="white"/>
<path id="Vector_2" d="M7.99962 7.83306C9.13296 7.83306 10.053 6.91306 10.053 5.77306C10.053 4.63306 9.13296 3.71973 7.99962 3.71973C6.85962 3.71973 5.94629 4.63306 5.94629 5.76639C5.94629 6.89973 6.85962 7.81973 7.99296 7.81973L7.99962 7.83306ZM7.99962 6.83306C7.41296 6.83306 6.94629 6.35973 6.94629 5.77306C6.94629 5.18639 7.41296 4.71973 7.99296 4.71973C8.57296 4.71973 9.04629 5.18639 9.04629 5.76639C9.04629 6.34639 8.57296 6.81973 7.99296 6.81973L7.99962 6.83306Z" fill="white"/>
<path id="Vector_3" d="M11.1663 11.106C11.1663 9.59928 9.72634 8.43262 7.99967 8.43262C6.26634 8.43262 4.83301 9.59928 4.83301 11.106C4.83301 11.3793 5.05301 11.606 5.33301 11.606C5.60634 11.606 5.83301 11.3793 5.83301 11.106C5.83301 10.206 6.77967 9.43262 7.99967 9.43262C9.21301 9.43262 10.1663 10.206 10.1663 11.106C10.1663 11.3793 10.3863 11.606 10.6663 11.606C10.9397 11.606 11.1663 11.3793 11.1663 11.106Z" fill="white"/>
</g>
</g>
</svg>
