<svg width="253.02499999999998px" height="143.6px" xmlns="http://www.w3.org/2000/svg" viewBox="123.48750000000001 3.200000000000003 253.02499999999998 143.6" style="background: rgba(0, 0, 0, 0);" preserveAspectRatio="xMidYMid"><defs><filter id="editing-extrude-glow"><feFlood flood-color="rgba(0%,0%,0%,0)" result="flood-1"></feFlood><feMorphology operator="erode" radius="1" in="SourceAlpha" result="erode"></feMorphology><feComposite operator="in" in="flood-1" in2="erode" result="comp1"></feComposite><feConvolveMatrix order="3,3" divisor="1" in="comp1" result="convolve" kernelMatrix="0 0 0 1 1 1 0 0 0"></feConvolveMatrix><feOffset dx="-3" dy="0" in="convolve" result="extrude"></feOffset><feComposite operator="in" in="flood-1" in2="extrude" result="comp-extrude"></feComposite><feFlood flood-color="rgba(0%,0%,0%,0)" result="flood-2"></feFlood><feComposite operator="in" in="flood-2" in2="SourceAlpha" result="comp2"></feComposite><feMorphology operator="dilate" radius="1" in="comp2" result="dilate"></feMorphology><feOffset dx="-4.5" dy="0" in="dilate" result="offset"></feOffset><feGaussianBlur in="offset" stdDeviation="5.8" result="blur"></feGaussianBlur><feComponentTransfer in="blur" result="shadow"><feFuncA type="linear" slope="0.8" intercept="-0.2"></feFuncA></feComponentTransfer><feMerge><feMergeNode in="shadow"></feMergeNode><feMergeNode in="comp-extrude"></feMergeNode><feMergeNode in="SourceGraphic"></feMergeNode></feMerge></filter></defs><g filter="url(#editing-extrude-glow)"><g transform="translate(164.32501697540283, 104.34500122070312)"><path d="M26.22-34.28L31.81-34.28L31.81-4.34L31.81-4.34Q31.81-1.25 31.61 0.88L31.61 0.88L31.61 0.88Q31.41 3 30.86 4.84L30.86 4.84L30.86 4.84Q30.31 6.69 29.38 7.80L29.38 7.80L29.38 7.80Q28.44 8.91 26.89 9.72L26.89 9.72L26.89 9.72Q25.34 10.53 23.25 10.84L23.25 10.84L23.25 10.84Q21.16 11.16 18.22 11.16L18.22 11.16L18.22 11.16Q12.09 11.16 8.47 9.88L8.47 9.88L8.88 5.63L8.88 5.63Q12.38 6.59 17.19 6.59L17.19 6.59L17.19 6.59Q19.47 6.59 21.05 6.34L21.05 6.34L21.05 6.34Q22.63 6.09 23.52 5.72L23.52 5.72L23.52 5.72Q24.41 5.34 24.89 4.64L24.89 4.64L24.89 4.64Q25.38 3.94 25.52 3.25L25.52 3.25L25.52 3.25Q25.66 2.56 25.66 1.50L25.66 1.50L25.63-4.09L25.63-4.09Q24.78-1.91 22.72-0.91L22.72-0.91L22.72-0.91Q20.66 0.09 16.91 0.09L16.91 0.09L16.91 0.09Q14.22 0.09 12.22-0.28L12.22-0.28L12.22-0.28Q10.22-0.66 8.81-1.22L8.81-1.22L8.81-1.22Q7.41-1.78 6.48-2.98L6.48-2.98L6.48-2.98Q5.56-4.19 5.03-5.27L5.03-5.27L5.03-5.27Q4.50-6.34 4.25-8.36L4.25-8.36L4.25-8.36Q4-10.38 3.94-11.98L3.94-11.98L3.94-11.98Q3.88-13.59 3.88-16.38L3.88-16.38L3.88-16.38Q3.88-19.91 3.94-21.91L3.94-21.91L3.94-21.91Q4-23.91 4.22-26.23L4.22-26.23L4.22-26.23Q4.44-28.56 4.94-29.75L4.94-29.75L4.94-29.75Q5.44-30.94 6.23-32.17L6.23-32.17L6.23-32.17Q7.03-33.41 8.31-33.94L8.31-33.94L8.31-33.94Q9.59-34.47 11.33-34.81L11.33-34.81L11.33-34.81Q13.06-35.16 15.47-35.16L15.47-35.16L15.47-35.16Q19.56-35.16 22.03-34.05L22.03-34.05L22.03-34.05Q24.50-32.94 25.63-30.47L25.63-30.47L26.22-34.28ZM25.66-6.97L25.66-6.97L25.66-26.03L25.66-26.03Q25.66-28.66 23.92-29.80L23.92-29.80L23.92-29.80Q22.19-30.94 17.72-30.94L17.72-30.94L17.72-30.94Q13.34-30.94 11.72-30.16L11.72-30.16L11.72-30.16Q9.97-29.31 9.97-23.31L9.97-23.31L9.97-23.31Q9.97-14.28 10.22-7.56L10.22-7.56L10.22-7.56Q10.31-6.09 10.98-5.41L10.98-5.41L10.98-5.41Q11.66-4.72 13.28-4.45L13.28-4.45L13.28-4.45Q14.91-4.19 18.38-4.19L18.38-4.19L18.38-4.19Q25.34-4.19 25.66-6.97ZM47.75-34.28L47.75 0L41.59 0L41.59-34.28L47.75-34.28ZM41.59-47.53L47.75-47.53L47.75-42.13L41.59-42.13L41.59-47.53ZM77.59-4.22L77.31 0L55.75 0L55.22-4.41L71.25-30L56.66-30L56.38-34.28L77.13-34.28L77.41-30L61.44-4.22L77.59-4.22ZM130.03-21.03L130.03 0L123.88 0L123.88-20.81L123.88-20.81Q123.88-24.34 123.97-26.19L123.97-26.19L123.97-26.19Q123.97-27.31 123.81-28.02L123.81-28.02L123.81-28.02Q123.66-28.72 123.13-29.47L123.13-29.47L123.13-29.47Q122.59-30.22 121.38-30.58L121.38-30.58L121.38-30.58Q120.16-30.94 118.25-30.94L118.25-30.94L118.25-30.94Q116.16-30.94 114.73-30.67L114.73-30.67L114.73-30.67Q113.31-30.41 112.45-29.95L112.45-29.95L112.45-29.95Q111.59-29.50 111.13-28.66L111.13-28.66L111.13-28.66Q110.66-27.81 110.52-26.89L110.52-26.89L110.52-26.89Q110.38-25.97 110.38-24.50L110.38-24.50L110.38-24.50Q110.38-23.81 110.42-22.05L110.42-22.05L110.42-22.05Q110.47-20.28 110.47-19.19L110.47-19.19L110.47 0L104.31 0L104.31-21.94L104.31-21.94Q104.31-22.09 104.31-22.38L104.31-22.38L104.31-22.38Q104.31-24.50 104.28-25.42L104.28-25.42L104.28-25.42Q104.25-26.34 104.05-27.58L104.05-27.58L104.05-27.58Q103.84-28.81 103.45-29.25L103.45-29.25L103.45-29.25Q103.06-29.69 102.25-30.19L102.25-30.19L102.25-30.19Q101.44-30.69 100.28-30.81L100.28-30.81L100.28-30.81Q99.13-30.94 97.34-30.94L97.34-30.94L97.34-30.94Q96.22-30.94 95.20-30.80L95.20-30.80L95.20-30.80Q94.19-30.66 93.25-30.34L93.25-30.34L93.25-30.34Q92.31-30.03 91.72-29.44L91.72-29.44L91.72-29.44Q91.13-28.84 91.09-28.03L91.09-28.03L91.09-28.03Q90.69-23.88 90.69-18.91L90.69-18.91L90.69 0L84.53 0L84.53-34.28L90.16-34.28L90.75-30.53L90.75-30.53Q92-33.06 94.34-34.13L94.34-34.13L94.34-34.13Q96.69-35.19 100.28-35.19L100.28-35.19L100.28-35.19Q103.81-35.19 105.91-34.06L105.91-34.06L105.91-34.06Q108-32.94 108.97-30.38L108.97-30.38L108.97-30.38Q111.47-35.25 118.84-35.25L118.84-35.25L118.84-35.25Q121.25-35.25 122.95-34.98L122.95-34.98L122.95-34.98Q124.66-34.72 125.94-34L125.94-34L125.94-34Q127.22-33.28 127.98-32.28L127.98-32.28L127.98-32.28Q128.75-31.28 129.22-29.61L129.22-29.61L129.22-29.61Q129.69-27.94 129.86-25.94L129.86-25.94L129.86-25.94Q130.03-23.94 130.03-21.03L130.03-21.03ZM153.06-3.84L153.06-3.84L153.06-3.84Q157.50-3.94 159.23-4.50L159.23-4.50L159.23-4.50Q160.97-5.06 160.97-6.72L160.97-6.72L160.97-6.72Q161.31-11.19 161.31-17.06L161.31-17.06L161.31-17.06Q161.31-19 161.16-22.61L161.16-22.61L161.16-22.61Q161-26.22 161-27.97L161-27.97L161-27.97Q161-28.50 160.83-28.94L160.83-28.94L160.83-28.94Q160.66-29.38 160.27-29.67L160.27-29.67L160.27-29.67Q159.88-29.97 159.48-30.19L159.48-30.19L159.48-30.19Q159.09-30.41 158.39-30.53L158.39-30.53L158.39-30.53Q157.69-30.66 157.20-30.75L157.20-30.75L157.20-30.75Q156.72-30.84 155.83-30.88L155.83-30.88L155.83-30.88Q154.94-30.91 154.45-30.91L154.45-30.91L154.45-30.91Q153.97-30.91 153.03-30.91L153.03-30.91L153.03-30.91Q152.09-30.91 151.61-30.91L151.61-30.91L151.61-30.91Q151.13-30.91 150.23-30.88L150.23-30.88L150.23-30.88Q149.34-30.84 148.86-30.75L148.86-30.75L148.86-30.75Q148.38-30.66 147.67-30.53L147.67-30.53L147.67-30.53Q146.97-30.41 146.58-30.19L146.58-30.19L146.58-30.19Q146.19-29.97 145.80-29.67L145.80-29.67L145.80-29.67Q145.41-29.38 145.23-28.94L145.23-28.94L145.23-28.94Q145.06-28.50 145.06-27.97L145.06-27.97L145.06-27.97Q145.06-26.22 144.91-22.61L144.91-22.61L144.91-22.61Q144.75-19 144.75-17.06L144.75-17.06L144.75-17.06Q144.75-11.19 145.09-6.72L145.09-6.72L145.09-6.72Q145.09-5.06 146.92-4.45L146.92-4.45L146.92-4.45Q148.75-3.84 153.06-3.84ZM153 0.47L153 0.47L153 0.47Q149.53 0.47 147.22 0.19L147.22 0.19L147.22 0.19Q144.91-0.09 143.23-1.05L143.23-1.05L143.23-1.05Q141.56-2 140.69-3.08L140.69-3.08L140.69-3.08Q139.81-4.16 139.31-6.48L139.31-6.48L139.31-6.48Q138.81-8.81 138.70-11.09L138.70-11.09L138.70-11.09Q138.59-13.38 138.59-17.44L138.59-17.44L138.59-17.44Q138.59-20.47 138.67-22.50L138.67-22.50L138.67-22.50Q138.75-24.53 139.03-26.48L139.03-26.48L139.03-26.48Q139.31-28.44 139.73-29.64L139.73-29.64L139.73-29.64Q140.16-30.84 140.95-31.92L140.95-31.92L140.95-31.92Q141.75-33 142.75-33.56L142.75-33.56L142.75-33.56Q143.75-34.13 145.30-34.55L145.30-34.55L145.30-34.55Q146.84-34.97 148.67-35.11L148.67-35.11L148.67-35.11Q150.50-35.25 153.03-35.25L153.03-35.25L153.03-35.25Q155.56-35.25 157.39-35.11L157.39-35.11L157.39-35.11Q159.22-34.97 160.77-34.55L160.77-34.55L160.77-34.55Q162.31-34.13 163.31-33.56L163.31-33.56L163.31-33.56Q164.31-33 165.11-31.92L165.11-31.92L165.11-31.92Q165.91-30.84 166.33-29.64L166.33-29.64L166.33-29.64Q166.75-28.44 167.03-26.48L167.03-26.48L167.03-26.48Q167.31-24.53 167.39-22.50L167.39-22.50L167.39-22.50Q167.47-20.47 167.47-17.44L167.47-17.44L167.47-17.44Q167.47-13.38 167.36-11.09L167.36-11.09L167.36-11.09Q167.25-8.81 166.75-6.48L166.75-6.48L166.75-6.48Q166.25-4.16 165.36-3.06L165.36-3.06L165.36-3.06Q164.47-1.97 162.80-1.03L162.80-1.03L162.80-1.03Q161.13-0.09 158.81 0.19L158.81 0.19L158.81 0.19Q156.50 0.47 153 0.47Z" fill="#000000"></path></g></g><style>text {
  font-size: 64px;
  font-family: Arial Black;
  dominant-baseline: central;
  text-anchor: middle;
  }</style></svg>
