<?xml version="1.0" encoding="UTF-8" standalone="no"?>
<!DOCTYPE svg PUBLIC "-//W3C//DTD SVG 1.1//EN" "http://www.w3.org/Graphics/SVG/1.1/DTD/svg11.dtd">
<svg width="100%" height="100%" viewBox="0 0 264 79" version="1.1" xmlns="http://www.w3.org/2000/svg" xmlns:xlink="http://www.w3.org/1999/xlink" xml:space="preserve" xmlns:serif="http://www.serif.com/" style="fill-rule:evenodd;clip-rule:evenodd;stroke-linejoin:round;stroke-miterlimit:2;">
    <g transform="matrix(1,0,0,1,-124.423,-216.738)">
        <g transform="matrix(1.03871,0,0,1.03871,2.0681,-9.90931)">
            <g transform="matrix(1,0,0,1,0.168246,-4.26326e-14)">
                <g transform="matrix(0.0892709,0,0,0.0892709,-24.9881,100.691)">
                    <path d="M2305.75,1497.74C2297.82,1524.08 2277.68,1545.15 2251.92,1554.35C2242.79,1557.62 2232.97,1559.39 2222.72,1559.39C2174.84,1559.39 2136.02,1520.58 2136.02,1472.69L2136.29,1465.79C2138.51,1437.67 2154.13,1413.33 2176.77,1399.16C2190.09,1390.81 2205.85,1385.99 2222.72,1385.99C2270.6,1385.99 2309.42,1424.81 2309.42,1472.69C2309.42,1481.41 2308.14,1489.81 2305.75,1497.74ZM2318.67,1700.92L2329.83,1695.89C2351.72,1685.38 2371.88,1671.71 2389.69,1655.44C2398.2,1688.83 2402.45,1724.16 2402.45,1761.43C2402.45,1873.4 2363.58,1968.34 2285.87,2046.24C2207.97,2124.14 2113.21,2163.17 2001.24,2163.17C1888.03,2163.17 1792.39,2124.31 1714.5,2046.76C1636.6,1969.23 1597.56,1875.36 1597.56,1765.17C1597.56,1691.71 1615.3,1623.74 1650.8,1560.93C1686.28,1498.28 1734.72,1449.14 1796.12,1413.64C1857.34,1378.16 1923.71,1360.41 1995.03,1360.41L2002.06,1360.46C1991.67,1380.86 1984.13,1402.68 1979.73,1425.32L1977.95,1435.6C1929,1438.74 1882.22,1453.25 1837.65,1479.12C1787.07,1508.58 1747.5,1548.15 1718.93,1598.01C1690.55,1648.05 1676.35,1703.59 1676.35,1764.99C1676.35,1855.65 1707.75,1932.31 1770.75,1994.78C1833.74,2057.42 1909.69,2088.64 1998.4,2088.64C2057.85,2088.64 2112.68,2074.27 2163.08,2045.52C2206.73,2020.7 2242.06,1987.96 2269.06,1947.38C2273.34,1940.96 2277.4,1934.34 2281.26,1927.52C2309.46,1877.66 2323.66,1822.29 2323.66,1761.26C2323.66,1740.46 2321.98,1720.35 2318.67,1700.92ZM2222.72,1629.06C2246.94,1629.06 2269.89,1623.55 2290.35,1613.72C2315.03,1601.86 2336.13,1583.71 2351.55,1561.34C2368.91,1536.14 2379.09,1505.61 2379.09,1472.69C2379.09,1386.33 2309.08,1316.33 2222.72,1316.33C2174.35,1316.33 2131.1,1338.29 2102.42,1372.8C2085.98,1392.57 2074.33,1416.47 2069.22,1442.7C2067.35,1452.41 2066.35,1462.43 2066.35,1472.69C2066.35,1559.06 2136.36,1629.06 2222.72,1629.06Z" style="fill:white;"/>
                </g>
                <g transform="matrix(0.881451,-0.102134,0.102134,0.881451,3.86159,39.6565)">
                    <path d="M139.366,242.783C128.271,242.783 119.277,251.778 119.277,262.873C119.277,273.96 128.278,282.962 139.366,282.962C150.461,282.962 159.455,273.968 159.455,262.873L159.455,262.873C148.36,262.873 139.366,253.878 139.366,242.783L139.366,242.783Z" style="fill:white;"/>
                </g>
            </g>
            <g transform="matrix(1.50439,0,0,1.50439,-120.171,-134.49)">
                <path d="M219.807,247.845L224.394,247.845L224.394,250.75C224.394,250.988 224.513,251.107 224.751,251.107C224.853,251.107 224.946,251.064 225.031,250.98C225.116,250.895 225.21,250.801 225.312,250.699C227.112,248.287 229.865,247.08 233.569,247.08C236.899,247.08 239.515,248.015 241.418,249.884C243.321,251.753 244.272,254.386 244.272,257.784L244.272,274.349L239.685,274.349L239.685,258.548C239.685,256.136 239.073,254.301 237.85,253.044C236.627,251.787 234.86,251.158 232.549,251.158C229.933,251.158 227.919,251.948 226.509,253.528C225.099,255.108 224.394,257.461 224.394,260.587L224.394,274.349L219.807,274.349L219.807,247.845Z" style="fill:white;fill-rule:nonzero;"/>
                <path d="M275.363,274.349L270.776,274.349L270.776,271.444C270.776,271.206 270.657,271.087 270.419,271.087C270.317,271.087 270.224,271.129 270.139,271.214C270.054,271.299 269.96,271.393 269.859,271.495C267.956,273.907 265.203,275.113 261.602,275.113C258.272,275.113 255.655,274.179 253.752,272.31C251.849,270.441 250.898,267.808 250.898,264.41L250.898,247.845L255.485,247.845L255.485,263.645C255.485,266.058 256.097,267.893 257.32,269.15C258.543,270.407 260.31,271.036 262.621,271.036C265.237,271.036 267.251,270.246 268.661,268.666C270.071,267.086 270.776,264.733 270.776,261.607L270.776,247.845L275.363,247.845L275.363,274.349Z" style="fill:white;fill-rule:nonzero;"/>
                <path d="M282.499,247.845L287.086,247.845L287.086,251.413C287.086,251.651 287.205,251.77 287.443,251.77C287.681,251.77 287.851,251.634 287.953,251.362C288.53,250.071 289.329,249.145 290.348,248.584C291.368,248.023 292.778,247.743 294.579,247.743L296.77,247.743L296.77,252.33L293.865,252.33C291.588,252.33 289.889,252.874 288.768,253.961C287.647,255.049 287.086,256.832 287.086,259.313L287.086,274.349L282.499,274.349L282.499,247.845Z" style="fill:white;fill-rule:nonzero;"/>
                <path d="M312.825,247.08C315.408,247.08 317.744,247.624 319.834,248.711C321.923,249.799 323.571,251.396 324.778,253.503C325.984,255.609 326.587,258.141 326.587,261.097C326.587,264.053 325.984,266.585 324.778,268.691C323.571,270.798 321.923,272.395 319.834,273.482C317.744,274.57 315.408,275.113 312.825,275.113C310.243,275.113 307.907,274.57 305.817,273.482C303.728,272.395 302.08,270.798 300.873,268.691C299.667,266.585 299.064,264.053 299.064,261.097C299.064,258.141 299.667,255.609 300.873,253.503C302.08,251.396 303.728,249.799 305.817,248.711C307.907,247.624 310.243,247.08 312.825,247.08ZM312.825,251.158C310.073,251.158 307.856,252.033 306.174,253.783C304.492,255.533 303.651,257.971 303.651,261.097C303.651,264.223 304.492,266.661 306.174,268.411C307.856,270.161 310.073,271.036 312.825,271.036C315.578,271.036 317.795,270.161 319.477,268.411C321.159,266.661 322,264.223 322,261.097C322,257.971 321.159,255.533 319.477,253.783C317.795,252.033 315.578,251.158 312.825,251.158Z" style="fill:white;fill-rule:nonzero;"/>
            </g>
        </g>
    </g>
</svg>
