<svg xmlns="http://www.w3.org/2000/svg" width="137" height="149" viewBox="0 0 137 149" fill="none">
  <g clip-path="url(#clip0_4065_1346)">
    <mask id="mask0_4065_1346" style="mask-type:alpha" maskUnits="userSpaceOnUse" x="-5" y="-39" width="133" height="188">
      <rect x="-5" y="-39" width="132.018" height="188" fill="url(#paint0_linear_4065_1346)"/>
    </mask>
    <g mask="url(#mask0_4065_1346)">
      <path fill-rule="evenodd" clip-rule="evenodd" d="M107.31 105.96C107.31 105.96 107.318 115.43 106.865 123.47C106.403 131.51 105.317 137.53 104.394 140.35C103.462 143.16 99.1525 145.26 93.8258 142.45C88.499 139.63 86.4045 118.54 86.4045 118.54" fill="#04E1A7"/>
      <mask id="mask1_4065_1346" style="mask-type:luminance" maskUnits="userSpaceOnUse" x="86" y="105" width="22" height="39">
        <path d="M107.31 105.96C107.31 105.96 107.318 115.43 106.865 123.47C106.403 131.51 105.317 137.53 104.394 140.35C103.462 143.16 99.1525 145.26 93.8258 142.45C88.499 139.63 86.4045 118.54 86.4045 118.54" fill="white"/>
      </mask>
      <g mask="url(#mask1_4065_1346)">
        <path fill-rule="evenodd" clip-rule="evenodd" d="M86.7892 121.702C86.7892 121.702 93.6693 122.292 99.5393 119.572C100.309 119.212 101.199 119.252 101.919 119.682C102.649 120.122 103.109 120.882 103.159 121.722C103.459 126.952 103.59 135.442 101.61 137.482C98.6996 140.482 93.5893 140.772 90.2893 137.222C90.2893 137.222 88.2594 143.892 91.9094 145.032C95.5594 146.172 105.249 145.772 106.159 141.552C107.079 137.332 108.819 108.022 108.819 108.022L86.3996 116.442L86.7892 121.702Z" fill="#499A9B"/>
      </g>
      <path d="M107.31 105.96C107.31 105.96 107.318 115.43 106.865 123.47C106.403 131.51 105.317 137.53 104.394 140.35C103.462 143.16 99.1525 145.26 93.8258 142.45C88.499 139.63 86.4045 118.54 86.4045 118.54" stroke="black" stroke-width="0.989394" stroke-miterlimit="1.5" stroke-linejoin="round"/>
      <path fill-rule="evenodd" clip-rule="evenodd" d="M83.7448 101.365C83.7448 101.365 83.7529 110.835 83.2997 118.875C82.838 126.915 81.7525 132.935 80.829 135.755C79.8971 138.565 75.5875 140.665 70.2608 137.855C64.9341 135.035 62.8396 113.945 62.8396 113.945" fill="#04E1A7"/>
      <mask id="mask2_4065_1346" style="mask-type:luminance" maskUnits="userSpaceOnUse" x="62" y="101" width="22" height="39">
        <path d="M83.7448 101.365C83.7448 101.365 83.7529 110.835 83.2997 118.875C82.838 126.915 81.7525 132.935 80.829 135.755C79.8971 138.565 75.5875 140.665 70.2608 137.855C64.9341 135.035 62.8396 113.945 62.8396 113.945" fill="white"/>
      </mask>
      <g mask="url(#mask2_4065_1346)">
        <path fill-rule="evenodd" clip-rule="evenodd" d="M62.756 116.04C62.756 116.04 67.7162 118.87 77.6662 119.41C78.5562 119.46 79.2463 120.2 79.2463 121.1C79.2363 124.66 79.006 132.96 77.176 134.33C75.326 135.72 69.2563 135.78 65.9562 132.23C65.9562 132.23 63.9264 138.9 67.5764 140.04C71.2264 141.18 80.9164 140.78 81.8264 136.56C82.7464 132.34 85.1863 109.98 85.1863 109.98L62.3762 110.79L62.756 116.04Z" fill="#499A9B"/>
      </g>
      <path d="M83.7448 101.365C83.7448 101.365 83.7529 110.835 83.2997 118.875C82.838 126.915 81.7525 132.935 80.829 135.755C79.8971 138.565 75.5875 140.665 70.2608 137.855C64.9341 135.035 62.8396 113.945 62.8396 113.945" stroke="black" stroke-width="0.989394" stroke-miterlimit="1.5" stroke-linejoin="round"/>
      <path fill-rule="evenodd" clip-rule="evenodd" d="M63.4352 78.978C63.4352 78.978 61.7542 94.4653 60.766 103.595C60.2846 108.031 62.6413 112.299 66.6701 114.247C77.6164 119.348 91.0032 119.684 101.916 114.38C106.004 112.388 108.352 107.996 107.736 103.489C106.511 94.3415 104.425 78.978 104.425 78.978H63.4352Z" fill="#04E1A7" stroke="black" stroke-width="1.00318" stroke-miterlimit="1.5" stroke-linejoin="round"/>
      <path fill-rule="evenodd" clip-rule="evenodd" d="M78.5026 112.075L71.5924 101.725L77.8127 96.1052C76.1927 101.645 77.5826 105.015 78.7726 105.455C82.1826 109.505 106.202 108.995 112.802 100.005C112.682 97.6351 112.423 94.7751 112.093 91.7851C111.933 90.3351 111.763 88.8452 111.573 87.3752C111.063 83.2552 110.493 79.2153 110.043 76.1553C109.693 73.8453 109.423 72.0951 109.293 71.2651C109.243 70.9251 109.213 70.7451 109.213 70.7451C104.943 68.2551 61.8224 69.3252 61.8224 69.3252C59.2324 94.0452 60.0423 104.835 60.7223 106.265C61.3323 107.545 64.3926 111.295 78.5026 112.075Z" fill="#04E1A7"/>
      <mask id="mask3_4065_1346" style="mask-type:luminance" maskUnits="userSpaceOnUse" x="60" y="69" width="53" height="44">
        <path d="M78.5007 112.075L71.5905 101.725L77.8107 96.105C76.1907 101.645 77.5807 105.015 78.7707 105.455C82.1807 109.505 106.201 108.995 112.801 100.005C112.681 97.6349 112.421 94.7749 112.091 91.7849C111.931 90.3349 111.761 88.845 111.571 87.375C111.061 83.255 110.491 79.215 110.041 76.155C109.691 73.845 109.421 72.0949 109.291 71.2649C109.241 70.9249 109.211 70.7449 109.211 70.7449C104.941 68.2549 61.8205 69.3249 61.8205 69.3249C59.2305 94.0449 60.0404 104.835 60.7204 106.265C61.3304 107.545 64.3906 111.295 78.5007 112.075Z" fill="white"/>
      </mask>
      <g mask="url(#mask3_4065_1346)">
        <path fill-rule="evenodd" clip-rule="evenodd" d="M110.031 76.1549C109.691 73.8449 109.421 72.0948 109.291 71.2648L61.9308 70.3649L64.9904 75.9947C64.9904 75.9947 74.3303 80.9349 91.6203 81.6049C94.7503 81.7249 97.3612 81.6948 99.5012 81.5948C105.441 81.3248 107.801 80.4547 107.801 80.4547C107.801 80.4547 110.391 83.6049 111.571 87.3749C112.021 88.8049 112.261 90.3148 112.091 91.7848C111.981 92.7348 111.691 93.6748 111.171 94.5448C107.711 100.345 97.4709 104.685 79.6408 102.895C79.6408 102.895 77.5907 99.6848 77.8107 96.1048C76.1907 101.645 77.5707 105.015 78.7707 105.455C82.1707 109.505 106.191 108.995 112.801 100.005C113.081 99.6247 113.331 99.2248 113.541 98.8148C118.681 88.9648 110.391 75.9747 110.391 75.9747C110.391 75.9747 110.271 76.0349 110.031 76.1549Z" fill="#499A9B"/>
      </g>
      <path fill-rule="evenodd" clip-rule="evenodd" d="M78.5026 112.075L71.5925 101.725L77.8127 96.1052C76.1927 101.645 77.5826 105.015 78.7726 105.455C82.1826 109.505 106.202 108.995 112.802 100.005C112.682 97.6351 112.423 94.7751 112.093 91.7851C111.933 90.3351 111.763 88.8452 111.573 87.3752C111.063 83.2552 110.493 79.2153 110.043 76.1553C109.693 73.8453 109.423 72.0951 109.293 71.2651C109.243 70.9251 109.213 70.7451 109.213 70.7451C104.943 68.2551 61.8224 69.3252 61.8224 69.3252C59.2324 94.0452 60.0423 104.835 60.7223 106.265C61.3323 107.545 64.3926 111.295 78.5026 112.075Z" stroke="black" stroke-miterlimit="1.5" stroke-linejoin="round"/>
      <path fill-rule="evenodd" clip-rule="evenodd" d="M45.9552 45.8386C44.6743 46.7993 42.9628 47.5119 41.1531 47.1379C33.3057 45.5159 28.5976 36.2889 32.1674 27.0408C35.8276 17.5564 48.9686 13.8542 55.2305 19.2549C56.7019 20.5238 57.0427 22.8053 57.0427 22.8053" fill="#04E1A7"/>
      <mask id="mask4_4065_1346" style="mask-type:luminance" maskUnits="userSpaceOnUse" x="30" y="16" width="28" height="32">
        <path d="M45.9548 45.8386C44.6738 46.7993 42.9623 47.5119 41.1526 47.1379C33.3052 45.5159 28.5971 36.2889 32.1669 27.0408C35.8271 17.5564 48.9681 13.8542 55.2301 19.2549C56.7015 20.5238 57.0422 22.8053 57.0422 22.8053" fill="white"/>
      </mask>
      <g mask="url(#mask4_4065_1346)">
        <path d="M42.4452 21.1276C44.2675 19.8317 48.6138 19.081 51.6833 20.9313" stroke="white" stroke-width="1.92216" stroke-miterlimit="1.5" stroke-linecap="round" stroke-linejoin="round"/>
        <path fill-rule="evenodd" clip-rule="evenodd" d="M37.8695 19.0783C37.8695 19.0783 28.9865 26.7263 34.6017 37.833C37.3973 43.3806 45.9605 45.8465 45.9605 45.8465C45.9086 46.703 42.2891 48.18 38.1866 47.3191C33.1602 46.27 27.3782 42.0693 26.0829 33.2253C23.9491 18.6631 37.8695 19.0783 37.8695 19.0783Z" fill="#499A9B"/>
      </g>
      <path d="M45.9552 45.8386C44.6743 46.7993 42.9628 47.5119 41.1531 47.1379C33.3057 45.5159 28.5976 36.2889 32.1674 27.0408C35.8276 17.5564 48.9686 13.8542 55.2305 19.2549C56.7019 20.5238 57.0427 22.8053 57.0427 22.8053" stroke="#0B034F" stroke-width="1.99408" stroke-miterlimit="1.5" stroke-linejoin="round"/>
      <path fill-rule="evenodd" clip-rule="evenodd" d="M46.8137 40.6953C46.027 41.2415 44.9642 41.6313 43.8176 41.3717C38.8455 40.2461 35.6947 34.6538 37.7537 29.2171C39.8647 23.6415 48.0605 21.7031 52.1115 25.0475C53.0634 25.8333 53.3242 27.1994 53.3242 27.1994C53.3242 27.1994 50.427 28.8177 48.393 33.9255C46.5708 38.5055 47.3642 40.313 46.8137 40.6953Z" fill="#499A9B"/>
      <path d="M46.8137 40.6953C46.027 41.2415 44.9642 41.6313 43.8176 41.3717C38.8455 40.2461 35.6947 34.6538 37.7537 29.2171C39.8647 23.6415 48.0605 21.7031 52.1115 25.0475C53.0634 25.8333 53.3242 27.1994 53.3242 27.1994" stroke="#0B034F" stroke-width="1.99408" stroke-miterlimit="1.5" stroke-linejoin="round"/>
      <path fill-rule="evenodd" clip-rule="evenodd" d="M56.9736 19.0242C49.5524 23.2704 43.5489 29.6016 42.0312 38.016C40.2855 47.1719 40.5156 55.4832 42.8903 63.4208C46.0462 73.9974 55.3777 80.464 66.4093 80.9162C82.0086 81.5483 96.3137 78.5719 109.41 72.3665C119.004 67.8855 125.079 58.9313 124.426 48.3684C123.825 37.9303 120.566 29.0625 114.761 21.7873C110.075 15.9271 103.012 13.0691 95.5708 12.1204C80.8274 10.2398 69.0029 12.1426 56.9736 19.0242Z" fill="#04E1A7"/>
      <mask id="mask5_4065_1346" style="mask-type:luminance" maskUnits="userSpaceOnUse" x="40" y="11" width="85" height="70">
        <path d="M56.9736 19.0242C49.5524 23.2704 43.5489 29.6016 42.0312 38.016C40.2855 47.1719 40.5156 55.4832 42.8903 63.4208C46.0462 73.9974 55.3777 80.464 66.4093 80.9162C82.0086 81.5483 96.3137 78.5719 109.41 72.3665C119.004 67.8855 125.079 58.9313 124.426 48.3684C123.825 37.9303 120.566 29.0625 114.761 21.7873C110.075 15.9271 103.012 13.0691 95.5708 12.1204C80.8274 10.2398 69.0029 12.1426 56.9736 19.0242Z" fill="white"/>
      </mask>
      <g mask="url(#mask5_4065_1346)">
        <path fill-rule="evenodd" clip-rule="evenodd" d="M116.157 31.4988C116.157 31.4988 123.296 49.1143 112.138 61.7774C103.514 71.5568 68.9462 80.9252 53.5859 71.7057C53.5859 71.7057 44.0547 66.2696 42.7007 63.5122C42.7007 63.5122 39.3319 87.8563 85.6639 81.581C111.964 78.0253 121.247 67.3485 124.731 57.6474C127.036 51.2389 121.307 30.8905 121.307 30.8905L116.157 31.4988Z" fill="#499A9B"/>
      </g>
      <path fill-rule="evenodd" clip-rule="evenodd" d="M56.9736 19.0242C49.5524 23.2704 43.5489 29.6016 42.0312 38.016C40.2855 47.1719 40.5156 55.4832 42.8903 63.4208C46.0462 73.9974 55.3777 80.464 66.4093 80.9162C82.0086 81.5483 96.3137 78.5719 109.41 72.3665C119.004 67.8855 125.079 58.9313 124.426 48.3684C123.825 37.9303 120.566 29.0625 114.761 21.7873C110.075 15.9271 103.012 13.0691 95.5708 12.1204C80.8274 10.2398 69.0029 12.1426 56.9736 19.0242Z" stroke="#0B034F" stroke-width="1.99408" stroke-miterlimit="1.5" stroke-linejoin="round"/>
      <path fill-rule="evenodd" clip-rule="evenodd" d="M55.9009 37.4367C50.4984 39.6616 46.9541 44.9315 46.9475 50.7733C46.8803 55.493 47.2188 59.5775 48.4916 64.0243C50.0865 69.8458 55.0784 74.1074 61.0896 74.7676C71.321 75.9002 85.7633 74.4687 97.083 69.1445C102.854 66.4104 106.214 60.2899 105.408 53.9623C104.806 48.9449 103.269 44.4338 100.996 39.7171C98.5666 34.5884 93.3624 31.3466 87.6827 31.4378C76.2614 31.5736 66.3107 33.1068 55.9009 37.4367Z" fill="#F9C0AF"/>
      <mask id="mask6_4065_1346" style="mask-type:luminance" maskUnits="userSpaceOnUse" x="46" y="31" width="60" height="45">
        <path d="M55.9009 37.4367C50.4984 39.6616 46.9541 44.9315 46.9475 50.7733C46.8803 55.493 47.2188 59.5775 48.4916 64.0243C50.0865 69.8458 55.0784 74.1074 61.0896 74.7676C71.321 75.9002 85.7633 74.4687 97.083 69.1445C102.854 66.4104 106.214 60.2899 105.408 53.9623C104.806 48.9449 103.269 44.4338 100.996 39.7171C98.5666 34.5884 93.3624 31.3466 87.6827 31.4378C76.2614 31.5736 66.3107 33.1068 55.9009 37.4367Z" fill="white"/>
      </mask>
      <g mask="url(#mask6_4065_1346)">
        <path fill-rule="evenodd" clip-rule="evenodd" d="M101.428 38.5271C101.428 38.5271 96.0275 32.5725 89.2684 32.1488C82.2441 31.7203 58.04 34.8981 52.4533 40.6638C46.6081 46.6974 48.0745 59.6661 48.0745 59.6661C48.0745 59.6661 38.1239 38.0441 55.7084 31.1853C73.2836 24.3284 93.1017 27.0436 93.1017 27.0436C93.1017 27.0436 101.502 34.2756 101.428 38.5271Z" fill="#FD8874"/>
        <path fill-rule="evenodd" clip-rule="evenodd" d="M104.961 50.739C104.961 50.739 105.201 58.0298 101.095 61.9791C96.9909 65.9377 87.2111 71.8203 69.2419 71.9458C51.2726 72.0713 49.8223 67.2896 49.8223 67.2896C49.8223 67.2896 52.1343 75.6127 56.4253 78.6811C60.7163 81.7494 92.2248 74.8792 92.2248 74.8792C92.2248 74.8792 107.269 69.4518 107.595 62.9901C107.912 56.5309 104.961 50.739 104.961 50.739Z" fill="#FD8874"/>
      </g>
      <path fill-rule="evenodd" clip-rule="evenodd" d="M55.9009 37.4367C50.4984 39.6616 46.9541 44.9315 46.9475 50.7733C46.8802 55.493 47.2188 59.5775 48.4916 64.0243C50.0865 69.8458 55.0784 74.1074 61.0896 74.7676C71.321 75.9002 85.7633 74.4687 97.083 69.1445C102.854 66.4104 106.214 60.2899 105.408 53.9623C104.806 48.9449 103.269 44.4338 100.996 39.7171C98.5666 34.5884 93.3624 31.3466 87.6827 31.4378C76.2614 31.5736 66.3107 33.1068 55.9009 37.4367Z" stroke="#0B034F" stroke-width="1.99408" stroke-miterlimit="1.5" stroke-linecap="round" stroke-linejoin="round"/>
      <path fill-rule="evenodd" clip-rule="evenodd" d="M67.3441 62.4512C66.8984 61.8867 66.1493 61.6507 65.4601 61.8573C64.7746 62.0531 64.2738 62.6493 64.1952 63.3678C63.8652 66.6031 64.1079 70.7586 67.5963 70.7119C72.9551 70.6308 69.9392 65.7129 67.3441 62.4512Z" fill="#672D79"/>
      <mask id="mask7_4065_1346" style="mask-type:luminance" maskUnits="userSpaceOnUse" x="64" y="61" width="7" height="10">
        <path d="M67.3431 62.4516C66.8975 61.8871 66.1483 61.651 65.4591 61.8577C64.7736 62.0534 64.2728 62.6497 64.1942 63.3682C63.8643 66.6034 64.1069 70.7589 67.5954 70.7123C72.9542 70.6312 69.9382 65.7133 67.3431 62.4516Z" fill="white"/>
      </mask>
      <g mask="url(#mask7_4065_1346)">
        <path d="M76.8514 83.4619C72.1999 85.7136 66.6036 83.7681 64.3519 79.1167C62.1001 74.4652 64.0454 68.869 68.6969 66.6172C73.3484 64.3655 78.9446 66.3108 81.1964 70.9623C83.4482 75.6137 81.5029 81.2101 76.8514 83.4619Z" fill="#F06B85"/>
      </g>
      <path fill-rule="evenodd" clip-rule="evenodd" d="M67.3441 62.4512C66.8984 61.8867 66.1493 61.6507 65.4601 61.8573C64.7746 62.0531 64.2738 62.6493 64.1952 63.3678C63.8652 66.6031 64.1079 70.7586 67.5963 70.7119C72.9551 70.6308 69.9392 65.7129 67.3441 62.4512Z" stroke="#0B034F" stroke-width="1.99408" stroke-miterlimit="1.5" stroke-linecap="round" stroke-linejoin="round"/>
      <path fill-rule="evenodd" clip-rule="evenodd" d="M116.096 31.1873C117.688 31.3602 119.524 31.1002 120.889 29.8555C126.812 24.4578 126.155 14.1199 118.368 7.98594C110.382 1.69491 97.1905 5.21299 94.559 13.0523C93.9405 14.8942 94.8112 17.0304 94.8112 17.0304" fill="#04E1A7"/>
      <mask id="mask8_4065_1346" style="mask-type:luminance" maskUnits="userSpaceOnUse" x="94" y="4" width="31" height="28">
        <path d="M116.096 31.1874C117.688 31.3603 119.523 31.1003 120.889 29.8556C126.812 24.4579 126.155 14.12 118.368 7.98606C110.382 1.69504 97.1902 5.21312 94.5587 13.0524C93.9403 14.8943 94.8109 17.0305 94.8109 17.0305" fill="white"/>
      </mask>
      <g mask="url(#mask8_4065_1346)">
        <path d="M106.511 8.14287C104.283 7.95768 100.161 9.52884 98.4648 12.6859" stroke="white" stroke-width="1.92216" stroke-miterlimit="1.5" stroke-linecap="round" stroke-linejoin="round"/>
        <path fill-rule="evenodd" clip-rule="evenodd" d="M109.403 4.0454C109.403 4.0454 120.944 6.093 121.78 18.5104C122.204 24.708 116.097 31.1967 116.097 31.1967C116.578 31.907 120.445 31.3313 123.534 28.4983C127.323 25.0322 130.153 18.4698 126.757 10.2021C121.165 -3.41179 109.403 4.0454 109.403 4.0454Z" fill="#499A9B"/>
      </g>
      <path d="M116.096 31.1873C117.688 31.3602 119.524 31.1002 120.889 29.8555C126.812 24.4578 126.155 14.1199 118.368 7.98594C110.382 1.69491 97.1905 5.21299 94.559 13.0523C93.9405 14.8942 94.8112 17.0304 94.8112 17.0304" stroke="#0B034F" stroke-width="1.99408" stroke-miterlimit="1.5" stroke-linecap="round" stroke-linejoin="round"/>
      <path fill-rule="evenodd" clip-rule="evenodd" d="M112.736 27.2015C113.691 27.27 114.804 27.0632 115.658 26.2551C119.36 22.7509 119.218 16.3337 114.674 12.7075C110.015 8.9885 101.976 11.5014 100.198 16.4443C99.7797 17.6057 100.252 18.9137 100.252 18.9137C100.252 18.9137 103.57 18.828 107.924 22.184C111.828 25.1941 112.067 27.1535 112.736 27.2015Z" fill="#499A9B"/>
      <path d="M112.736 27.2015C113.691 27.27 114.804 27.0632 115.658 26.2551C119.36 22.7509 119.218 16.3337 114.674 12.7075C110.015 8.9885 101.976 11.5014 100.198 16.4443C99.7797 17.6057 100.252 18.9137 100.252 18.9137" stroke="#0B034F" stroke-width="1.99408" stroke-miterlimit="1.5" stroke-linecap="round" stroke-linejoin="round"/>
      <path fill-rule="evenodd" clip-rule="evenodd" d="M76.1267 49.422C74.5718 49.7221 73.7587 51.1965 73.7769 52.774C73.8053 55.3408 74.3339 58.8273 75.1243 61.0714C75.6385 62.5406 76.8301 63.6283 78.385 63.3283C79.9278 63.0307 80.6677 61.5703 80.7244 59.9909C80.8129 57.527 80.5069 54.0227 79.3769 51.6936C78.6986 50.2936 77.6695 49.1244 76.1267 49.422Z" fill="#0B034F"/>
      <path fill-rule="evenodd" clip-rule="evenodd" d="M53.6136 52.0488C55.115 51.7377 56.3129 52.7138 56.7907 54.0839C57.5691 56.3129 58.1829 59.5202 58.1706 61.7498C58.1654 63.2084 57.4276 64.5856 55.9262 64.8967C54.4364 65.2054 53.3093 64.2146 52.7631 62.8703C51.9111 60.7732 51.0902 57.6321 51.3833 55.2044C51.5587 53.7455 52.1238 52.3574 53.6136 52.0488Z" fill="#0B034F"/>
      <path fill-rule="evenodd" clip-rule="evenodd" d="M83.1663 112.515C83.3894 112.383 83.5791 112.191 83.7185 111.955L83.1663 112.515Z" fill="#9E9E9E" stroke="black" stroke-width="1.34094" stroke-miterlimit="1.5" stroke-linecap="round" stroke-linejoin="round"/>
      <path fill-rule="evenodd" clip-rule="evenodd" d="M24.9545 73.642L45.5239 111.412C46.3039 112.862 47.8341 113.742 49.4741 113.692L78.4341 112.862L80.6939 115.042L83.7046 111.952C83.9746 111.472 83.9842 110.892 83.7242 110.402L61.9243 70.362C61.1343 68.912 59.6044 68.032 57.9644 68.082L25.0639 69.0219C24.5139 69.0419 23.7338 69.822 23.7338 69.822L21.1742 72.322L24.9545 73.642Z" fill="#4C4170" stroke="#0B034F" stroke-width="2.21325" stroke-miterlimit="1.5" stroke-linecap="round" stroke-linejoin="round"/>
      <path d="M60.5339 75.5721L63.4734 73.212" stroke="#0B034F" stroke-width="1.99408" stroke-miterlimit="1.5" stroke-linecap="round" stroke-linejoin="round"/>
      <path fill-rule="evenodd" clip-rule="evenodd" d="M22.3452 71.768C21.7915 71.7839 21.2848 72.0838 21.0108 72.5645C20.7408 73.0361 20.7311 73.6252 20.9941 74.1082C25.1439 81.732 38.5733 106.404 42.7948 114.159C43.5789 115.6 45.1131 116.483 46.7567 116.436C53.7883 116.234 72.7297 115.689 79.6471 115.49C80.2009 115.474 80.7076 115.174 80.9816 114.693C81.2555 114.213 81.2612 113.633 80.9982 113.15C76.8437 105.517 63.419 80.8539 59.1975 73.0984C58.4134 71.658 56.8793 70.7745 55.2356 70.8217C48.204 71.024 29.2626 71.569 22.3452 71.768Z" fill="#736D86" stroke="#0B034F" stroke-width="2.68188" stroke-miterlimit="1.5" stroke-linecap="round" stroke-linejoin="round"/>
      <path d="M79.0042 109.512L41.0138 110.902" stroke="black" stroke-width="1.10662" stroke-miterlimit="1.5" stroke-linecap="round" stroke-linejoin="round"/>
      <path d="M60.5344 75.5721L22.2336 76.4122" stroke="#0B034F" stroke-width="1.99408" stroke-miterlimit="1.5" stroke-linecap="round" stroke-linejoin="round"/>
      <path fill-rule="evenodd" clip-rule="evenodd" d="M55.2092 93.2423L50.0678 83.7968L46.9343 83.8869L48.6481 87.0354L48.6308 87.0359L52.0584 93.3329L55.2092 93.2423ZM60.0738 96.3001L63.2246 96.2095L61.5108 93.061L58.36 93.1516L60.0738 96.3001ZM44.3198 96.7534L42.606 93.6049L39.4552 93.6955L41.169 96.844L44.3198 96.7534ZM49.1844 99.8112L47.4706 96.6627L44.3198 96.7534L46.0336 99.9019L49.1844 99.8112ZM58.6368 99.5393L49.1844 99.8112L50.8982 102.96L60.3506 102.688L58.6368 99.5393ZM60.0738 96.3001L56.923 96.3908L58.6368 99.5393L61.7876 99.4487L60.0738 96.3001ZM48.9076 93.4236L43.7662 83.9781L40.6154 84.0687L45.7568 93.5142L48.9076 93.4236Z" fill="#0B034F"/>
      <path fill-rule="evenodd" clip-rule="evenodd" d="M28.1658 42.1721C30.1956 42.1721 31.8455 43.8168 31.8455 45.8483C31.8455 49.6454 31.8455 54.3953 31.8455 58.1972C31.8455 60.2288 30.1956 61.8733 28.1658 61.8733C26.2138 61.8733 25.169 61.8733 25.169 61.8733C25.169 61.8733 24.9574 63.4599 24.7544 64.9593C24.6853 65.4914 24.3354 65.9412 23.8388 66.1444C23.3379 66.3427 22.7719 66.2605 22.353 65.9267C20.2499 64.2435 17.2918 61.8733 17.2918 61.8733C17.2918 61.8733 10.7147 61.8733 8.55971 61.8733C6.52998 61.8733 4.88428 60.2288 4.88428 58.1972C4.88428 54.3953 4.88428 49.6454 4.88428 45.8483C4.88428 43.8168 6.52998 42.1721 8.55971 42.1721C13.7118 42.1721 23.0181 42.1721 28.1658 42.1721Z" fill="#04E1A7" stroke="#0B034F" stroke-width="1.99272" stroke-miterlimit="1.5" stroke-linejoin="round"/>
      <path d="M10.9028 55.9113L14.884 51.93L18.3366 55.3828L25.8455 47.874" stroke="#0B034F" stroke-width="1.99927" stroke-miterlimit="1.5" stroke-linecap="round" stroke-linejoin="round"/>
      <path d="M21.4087 47.8726H25.8363V52.3001" stroke="#0B034F" stroke-width="2.00025" stroke-miterlimit="1.5" stroke-linecap="round" stroke-linejoin="round"/>
      <path fill-rule="evenodd" clip-rule="evenodd" d="M69.3325 102.68C70.9629 106.373 75.4708 107.925 79.1068 106.32C82.7508 104.712 83.4701 100.904 81.8398 97.2111C80.2094 93.518 76.8812 93.1345 73.2372 94.7432C69.5933 96.3518 67.7022 98.9868 69.3325 102.68Z" fill="#F8BFAE" stroke="#0B034F" stroke-width="1.99408" stroke-miterlimit="1.5" stroke-linecap="round" stroke-linejoin="round"/>
      <path fill-rule="evenodd" clip-rule="evenodd" d="M97.609 88.9824C98.3887 88.5831 99.7134 87.3529 101.242 85.8051C101.63 85.4 98.7761 80.8858 99.3611 80.6651C105.876 78.1829 110.389 75.9744 110.389 75.9744C110.389 75.9744 118.673 88.9627 113.541 98.8001C108.261 108.925 82.3233 109.66 78.7676 105.442C77.3885 104.939 75.7622 100.536 78.769 93.409C78.769 93.409 93.0698 91.3878 97.609 88.9824Z" fill="#04E1A7"/>
      <mask id="mask9_4065_1346" style="mask-type:luminance" maskUnits="userSpaceOnUse" x="77" y="75" width="39" height="33">
        <path d="M97.608 88.9819C98.3877 88.5826 99.7124 87.3524 101.241 85.8046C101.629 85.3995 98.7751 80.8853 99.3602 80.6647C105.875 78.1824 110.388 75.9739 110.388 75.9739C110.388 75.9739 118.672 88.9622 113.54 98.7996C108.26 108.924 82.3223 109.659 78.7666 105.441C77.3875 104.939 75.7612 100.536 78.7681 93.4085C78.7681 93.4085 93.0689 91.3873 97.608 88.9819Z" fill="white"/>
      </mask>
      <g mask="url(#mask9_4065_1346)">
        <path fill-rule="evenodd" clip-rule="evenodd" d="M110.016 76.1503C109.676 73.8403 109.406 72.0901 109.276 71.2601L61.9159 70.3602L64.9755 75.9901C64.9755 75.9901 74.3154 80.9302 91.6054 81.6002C94.7354 81.7202 97.3463 81.6902 99.4863 81.5902C105.426 81.3202 107.786 80.4501 107.786 80.4501C107.786 80.4501 110.376 83.6002 111.556 87.3702C112.006 88.8002 112.246 90.3102 112.076 91.7802C111.966 92.7302 111.676 93.6702 111.156 94.5402C107.696 100.34 97.456 104.68 79.6259 102.89C79.6259 102.89 77.5759 99.6802 77.7959 96.1002C76.1759 101.64 77.5558 105.01 78.7558 105.45C82.1558 109.5 106.176 108.99 112.786 100C113.066 99.6201 113.316 99.2202 113.526 98.8102C118.666 88.9602 110.376 75.9701 110.376 75.9701C110.376 75.9701 110.256 76.0303 110.016 76.1503Z" fill="#499A9B"/>
      </g>
      <path d="M110.219 75.7355C115.488 83.5318 117.615 92.4142 113.537 98.7989C106.741 109.467 82.7825 109.638 78.8959 105.527C78.8363 105.462 78.7765 105.397 78.6982 105.343C76.9041 103.741 76.5993 98.8626 78.2701 94.6004C78.5654 93.8687 79.2551 93.3481 80.0317 93.2786C83.6614 92.9352 94.3682 91.7248 97.62 88.9858" stroke="#0B034F" stroke-width="1.99408" stroke-miterlimit="1.5" stroke-linecap="round" stroke-linejoin="round"/>
    </g>
  </g>
  <defs>
    <linearGradient id="paint0_linear_4065_1346" x1="61.0089" y1="93.9926" x2="61.0089" y2="139.948" gradientUnits="userSpaceOnUse">
      <stop stop-color="#D9D9D9"/>
      <stop offset="1" stop-color="#737373" stop-opacity="0"/>
    </linearGradient>
    <clipPath id="clip0_4065_1346">
      <rect width="137" height="149" fill="white"/>
    </clipPath>
  </defs>
</svg>
