<svg width="25" height="24" viewBox="0 0 25 24" fill="none" xmlns="http://www.w3.org/2000/svg">
<g id="Frame">
<path id="Vector" d="M20.3783 4.48153C18.8968 3.79497 17.3189 3.28908 15.6567 3C15.4519 3.36135 15.211 3.85519 15.0545 4.25268C13.2959 3.98769 11.5494 3.98769 9.82695 4.25268C9.65832 3.85519 9.41742 3.36135 9.21266 3C7.55045 3.28908 5.97256 3.79497 4.49103 4.48153C1.50388 8.98635 0.696869 13.3828 1.09435 17.7069C3.08177 19.1885 4.99692 20.0798 6.88798 20.67C7.35773 20.0316 7.76726 19.3451 8.12861 18.6344C7.44205 18.3815 6.79162 18.0562 6.17733 17.6828C6.34596 17.5624 6.50254 17.4299 6.65913 17.3095C10.4292 19.068 14.5124 19.068 18.2343 17.3095C18.3909 17.442 18.5475 17.5624 18.7161 17.6828C18.1018 18.0562 17.4394 18.3694 16.7648 18.6344C17.1262 19.3451 17.5357 20.0316 18.0055 20.67C19.8965 20.0798 21.8237 19.1885 23.7991 17.7069C24.2689 12.6842 22.9921 8.33592 20.4024 4.48153H20.3783ZM8.6345 15.057C7.50227 15.057 6.57481 14.0091 6.57481 12.7203C6.57481 11.4315 7.47818 10.3836 8.6345 10.3836C9.79082 10.3836 10.7062 11.4315 10.6942 12.7203C10.6942 13.9971 9.79082 15.057 8.6345 15.057ZM16.2349 15.057C15.1026 15.057 14.1752 14.0091 14.1752 12.7203C14.1752 11.4315 15.0785 10.3836 16.2349 10.3836C17.3912 10.3836 18.3066 11.4315 18.2946 12.7203C18.2946 13.9971 17.3912 15.057 16.2349 15.057Z" fill="white"/>
</g>
</svg>
