<?xml version="1.0" encoding="UTF-8"?>
<svg version="1.1" xmlns="http://www.w3.org/2000/svg" width="876" height="864">
<path d="M0 0 C95.04 0 190.08 0 288 0 C288 93.72 288 187.44 288 284 C382.71 284 477.42 284 575 284 C575 378.05 575 472.1 575 569 C480.29 569 385.58 569 288 569 C288 662.72 288 756.44 288 853 C192.96 853 97.92 853 0 853 C0 759.28 0 665.56 0 569 C-94.71 569 -189.42 569 -287 569 C-287 474.95 -287 380.9 -287 284 C-192.29 284 -97.58 284 0 284 C0 190.28 0 96.56 0 0 Z M1 285 C1 378.39 1 471.78 1 568 C95.38 568 189.76 568 287 568 C287 474.61 287 381.22 287 285 C192.62 285 98.24 285 1 285 Z " fill="#7686C0" transform="translate(297,4)"/>
<path d="M0 0 C95.04 0 190.08 0 288 0 C288 94.05 288 188.1 288 285 C192.96 285 97.92 285 0 285 C0 190.95 0 96.9 0 0 Z " fill="#F24F4A" transform="translate(584,288)"/>
<path d="M0 0 C95.04 0 190.08 0 288 0 C288.020625 46.839375 288.04125 93.67875 288.0625 141.9375 C288.071604 156.75519287 288.08070801 171.57288574 288.09008789 186.83959961 C288.09460449 204.86242676 288.09460449 204.86242676 288.09544373 213.28590393 C288.09637955 219.19919732 288.10006154 225.11248136 288.10557556 231.02577209 C288.11191745 237.83687109 288.11484147 244.64796105 288.11344495 251.45906303 C288.11283958 254.94712698 288.11383411 258.43517072 288.11921513 261.92323101 C288.12413855 265.64817328 288.12300862 269.37306391 288.12025452 273.0980072 C288.12316718 274.19981103 288.12607985 275.30161486 288.12908077 276.43680668 C288.1270899 277.42839472 288.12509903 278.41998276 288.12304783 279.44161892 C288.12342755 280.30396379 288.12380727 281.16630866 288.1241985 282.05478519 C288 284 288 284 287 285 C285.4674343 285.09689341 283.93039225 285.12371695 282.39476681 285.12304783 C280.89217844 285.1260344 280.89217844 285.1260344 279.35923475 285.12908131 C278.24544543 285.12616847 277.13165611 285.12325563 275.9841156 285.12025452 C274.81128165 285.12110894 273.6384477 285.12196337 272.43007332 285.12284368 C269.16006641 285.12421185 265.8900986 285.12106443 262.62009633 285.11606562 C259.09929026 285.11176439 255.57848617 285.11320731 252.05767822 285.1139679 C245.9527944 285.11449334 239.84792123 285.11134442 233.74304008 285.10573006 C224.91630668 285.09761781 216.08957844 285.09500012 207.26284171 285.09374207 C192.94353543 285.09155111 178.62423483 285.08488985 164.30493164 285.07543945 C150.39152047 285.06626646 136.47811084 285.05919654 122.56469727 285.05493164 C121.6989419 285.05466364 120.83318653 285.05439565 119.94119614 285.05411953 C113.17085285 285.05204022 106.40050952 285.05008325 99.63016617 285.04816496 C66.42010557 285.03872396 33.21005918 285.01860739 0 285 C0 190.95 0 96.9 0 0 Z " fill="#35DAF0" transform="translate(297,4)"/>
<path d="M0 0 C71.98249556 -0.04033135 71.98249556 -0.04033135 101.97070312 -0.04882812 C108.83536786 -0.05078614 115.70003258 -0.05280666 122.56469727 -0.05493164 C123.42512786 -0.05519539 124.28555845 -0.05545914 125.1720627 -0.05573088 C139.08171042 -0.06008584 152.99135402 -0.06797276 166.9009993 -0.0771528 C181.1651504 -0.08648862 195.42929934 -0.09205546 209.69345337 -0.09408849 C218.50246567 -0.09546387 227.31146634 -0.09981525 236.12047506 -0.10791647 C242.15272758 -0.11318304 248.18497405 -0.1148045 254.2172287 -0.11350138 C257.70284421 -0.11285786 261.18843935 -0.11387707 264.67405128 -0.11920547 C268.44408935 -0.12413499 272.21407651 -0.12300104 275.9841156 -0.12025452 C277.09790492 -0.12316736 278.21169424 -0.1260802 279.35923475 -0.12908131 C280.36096033 -0.12709026 281.36268591 -0.12509921 282.39476681 -0.12304783 C283.70195404 -0.12361741 283.70195404 -0.12361741 285.0355491 -0.1241985 C287 0 287 0 288 1 C288.09773212 2.5107468 288.12555493 4.02606572 288.12584114 5.5399704 C288.12975276 7.02073334 288.12975276 7.02073334 288.13374341 8.53141069 C288.13039732 10.1777258 288.13039732 10.1777258 288.12698364 11.8572998 C288.12854363 13.01309398 288.13010362 14.16888816 288.13171089 15.3597064 C288.13502407 18.58217454 288.13381177 21.80460542 288.13072467 25.02707267 C288.12847237 28.49677469 288.13194933 31.96647148 288.13470459 35.43617249 C288.13916311 42.23898322 288.13818546 49.04178295 288.13529195 55.84459412 C288.13303824 61.37087922 288.13272525 66.89716123 288.13381577 72.42344666 C288.133969 73.20844967 288.13412223 73.99345269 288.13428011 74.80224368 C288.13459982 76.39670742 288.13492403 77.99117115 288.1352527 79.58563489 C288.13810773 94.55486648 288.1348201 109.52409196 288.12945233 124.49332255 C288.12498427 137.35183398 288.1257602 150.21033639 288.13037109 163.06884766 C288.13571645 177.98265179 288.13783304 192.89645057 288.13475883 207.81025553 C288.13444026 209.39902147 288.13412589 210.9877874 288.13381577 212.57655334 C288.13366149 213.35836085 288.13350721 214.14016836 288.13334826 214.945667 C288.13248299 220.46857565 288.13394621 225.99148091 288.13629532 231.51438904 C288.13909309 238.24028461 288.13835556 244.96616851 288.13301457 251.69206274 C288.13037724 255.12705209 288.12937303 258.56202195 288.13266373 261.99701118 C288.13537193 265.71226069 288.13199816 269.42745431 288.12698364 273.1427002 C288.12921436 274.2402436 288.13144509 275.33778701 288.13374341 276.46858931 C288.13113566 277.4557646 288.12852791 278.4429399 288.12584114 279.4600296 C288.12567879 280.31879464 288.12551644 281.17755967 288.12534916 282.06234789 C288 284 288 284 287 285 C285.4674343 285.09689341 283.93039225 285.12371695 282.39476681 285.12304783 C280.89217844 285.1260344 280.89217844 285.1260344 279.35923475 285.12908131 C278.24544543 285.12616847 277.13165611 285.12325563 275.9841156 285.12025452 C274.81128165 285.12110894 273.6384477 285.12196337 272.43007332 285.12284368 C269.16006641 285.12421185 265.8900986 285.12106443 262.62009633 285.11606562 C259.09929026 285.11176439 255.57848617 285.11320731 252.05767822 285.1139679 C245.9527944 285.11449334 239.84792123 285.11134442 233.74304008 285.10573006 C224.91630668 285.09761781 216.08957844 285.09500012 207.26284171 285.09374207 C192.94353543 285.09155111 178.62423483 285.08488985 164.30493164 285.07543945 C150.39152047 285.06626646 136.47811084 285.05919654 122.56469727 285.05493164 C121.6989419 285.05466364 120.83318653 285.05439565 119.94119614 285.05411953 C113.17085285 285.05204022 106.40050952 285.05008325 99.63016617 285.04816496 C66.42010557 285.03872396 33.21005918 285.01860739 0 285 C0 190.95 0 96.9 0 0 Z " fill="#304DBB" transform="translate(10,288)"/>
</svg>
