<svg xmlns="http://www.w3.org/2000/svg" width="173" height="33" viewBox="0 0 173 33" fill="none">
  <g clip-path="url(#clip0_4909_1233)">
    <path fill-rule="evenodd" clip-rule="evenodd" d="M18.8719 7.77759H-0.0976562V30.9373H3.85435V21.354H18.8719L22.8239 17.3609V11.7706L18.8719 7.77759ZM18.8719 17.3609H7.80635L5.43515 19.7567H3.85435V11.7706H18.8719V17.3609Z" fill="white"/>
    <path d="M73.4096 7.77759V19.7567L61.9488 31.3366L50.488 19.7567V7.77759H54.44V18.1028L61.9488 25.6896L69.4576 18.1028V7.77759H73.4096Z" fill="white"/>
    <path fill-rule="evenodd" clip-rule="evenodd" d="M75.7808 24.9477V13.7672L81.7088 7.77759H92.7744L98.7024 13.7672V24.9477L92.7744 30.9373H81.7088L75.7808 24.9477ZM79.7328 26.9442H94.7504V11.7706H79.7328V26.9442Z" fill="white"/>
    <path fill-rule="evenodd" clip-rule="evenodd" d="M141.779 7.77759H130.714L124.786 13.7672V30.9373H128.738V21.354H143.755V30.9373H147.707V13.7672L141.779 7.77759ZM143.755 17.3609H132.69L130.318 19.7567H128.738V11.7706H143.755V17.3609Z" fill="white"/>
    <path d="M173 30.9373V26.9442H154.03V7.77759H150.078V24.9477L156.006 30.9373H173Z" fill="white"/>
    <path d="M38.6319 11.7706V29.3401H40.2127L42.5839 26.9442H48.1167V30.9373H25.1951V26.9442H34.6799V9.37481H33.0991L30.7279 11.7706H25.1951V7.77759H48.1167V11.7706H38.6319Z" fill="white"/>
    <path d="M123.205 11.7706V7.77759H100.283V11.7706H105.816L108.187 9.37481H109.768V30.9373H113.72V11.7706H123.205Z" fill="white"/>
  </g>
  <defs>
    <clipPath id="clip0_4909_1233">
      <rect width="173" height="32" fill="white" transform="translate(0 0.5)"/>
    </clipPath>
  </defs>
</svg>
