<svg width="434" height="90" viewBox="0 0 434 90" fill="none" xmlns="http://www.w3.org/2000/svg">
<g clip-path="url(#clip0_2708_54)">
<path d="M44.3125 37.1497C49.016 40.1433 50.3599 46.3163 47.3067 50.9461L34.9997 69.5695C31.9465 74.1877 25.6515 75.4988 20.948 72.5052C16.2444 69.5115 14.9006 63.3385 17.9537 58.7087L30.2608 40.0969C33.3139 35.4788 39.6089 34.1676 44.3125 37.1613V37.1497Z" fill="#B5794E"/>
<path d="M80.7265 37.904C85.4301 40.8976 86.774 47.0706 83.7208 51.7004L71.9089 69.5696C68.8557 74.1877 62.5607 75.4989 57.8572 72.5052C53.1536 69.5115 51.8097 63.3386 54.8629 58.7088L66.6748 40.8396C69.728 36.2215 76.023 34.9103 80.7265 37.904Z" fill="#B5794E"/>
<path d="M83.4144 31.1392C84.8761 30.6171 86.444 31.6266 86.5619 33.1582L88.0001 52.2574C88.1415 54.1719 85.996 55.4251 84.3692 54.3692L64.612 41.7215C62.9734 40.6772 63.2681 38.2405 65.1071 37.5907L83.4144 31.1392Z" fill="#B5794E"/>
<path d="M71.8972 63.3965C69.7871 63.3965 67.8656 62.5495 66.4864 61.1919C66.4864 61.1919 65.0482 59.6254 63.8693 57.2235L63.8458 57.2583L56.0537 40.5263C54.7216 37.6486 52.081 35.8269 49.0632 34.945C48.8038 34.8638 48.5327 34.7942 48.2616 34.7362C44.8901 33.9239 41.2829 33.7615 37.935 34.7362C36.4732 35.1539 35.0586 35.7689 33.7973 36.6159C32.253 37.6486 30.8738 39.1687 29.8717 40.7119C29.4709 41.3385 29.0583 41.9535 28.6458 42.5685L25.569 47.2446L25.1093 47.9408C26.5003 46.5136 28.4571 45.6201 30.638 45.6201C33.7147 45.6201 36.544 47.5927 38.0646 50.1455C38.1472 50.2731 38.2179 50.4123 38.2886 50.54C39.4085 52.559 40.3044 54.7056 41.2711 56.7942L44.1356 62.944L46.2811 67.5389C46.399 67.7826 46.5051 68.0263 46.623 68.2699C47.7193 70.6254 49.6408 72.3543 51.8806 73.2942C54.1322 74.3733 56.7374 74.9999 59.5194 74.9999C62.6905 74.9999 66.1886 74.4902 68.782 72.6221C69.6897 71.9723 70.726 71.2124 71.4569 70.3653C72.506 69.147 73.1939 67.4925 74.078 66.1581C75.0211 64.7425 75.9524 63.3269 76.8837 61.8997L77.4259 61.0758C76.0349 62.5031 74.078 63.3965 71.8972 63.3965Z" fill="#DD9868"/>
<path d="M35.3534 63.3964C33.2433 63.3964 31.3218 62.5494 29.9425 61.1918C28.2922 59.5673 27.4552 57.3395 26.4885 55.2973L23.0581 48.1148C21.8911 45.6549 20.6887 43.2182 19.498 40.7583C19.4627 40.677 19.4155 40.5958 19.3802 40.5146C17.0579 35.5019 11.034 33.2973 5.92966 35.5948C0.825308 37.8922 -1.41448 43.8332 0.931403 48.8458L1.92162 50.9808L4.2675 56.0167L7.01419 61.9228L9.21861 66.6686C9.58405 67.446 9.90233 68.2583 10.3385 69.0009C11.2344 70.5557 12.5665 71.8321 14.1343 72.7372C16.7632 74.2688 19.946 74.9882 22.9756 74.9882C24.7203 74.9882 26.465 74.7445 28.1389 74.2456C29.6478 73.7931 31.2746 73.1433 32.5477 72.1918C32.9132 71.9133 33.255 71.6 33.5733 71.2751C35.9546 68.9197 37.3338 65.8099 39.2553 63.118C39.7386 62.445 40.1984 61.7488 40.6581 61.0526C39.2671 62.4798 37.5224 63.3732 35.3534 63.3732V63.3964Z" fill="#DD9868"/>
</g>
<path d="M115.997 33.0057C130.695 33.0057 136.694 38.9299 136.694 51.3032V52.4281C136.694 54.8278 135.419 56.2526 133.019 56.5525L107.148 59.7021C108.648 63.5266 112.097 65.4013 117.422 65.4013H129.645C132.269 65.4013 133.619 66.9761 133.244 69.6007L132.944 71.4005C132.569 73.7252 131.22 75 128.82 75H117.422C102.424 75 94.6996 68.026 94.6996 54.3778C94.6996 40.2048 102.124 33.0057 115.997 33.0057ZM106.398 51.2283L125.295 48.6786C125.295 44.7041 122.596 42.5294 115.997 42.5294C109.548 42.5294 106.923 44.9291 106.398 51.2283ZM169.906 33.0057C181.229 33.0057 187.528 40.5797 187.528 54.5278C187.528 68.5509 181.154 75.7499 164.206 75.7499C158.432 75.7499 153.108 74.85 148.234 73.1253C145.534 72.1504 143.809 70.4256 143.809 66.6761V21.9073C143.809 19.4326 145.234 18.0078 147.709 18.0078H151.308C153.783 18.0078 155.208 19.4326 155.208 21.9073V38.8549C159.107 34.8055 163.831 33.0057 169.906 33.0057ZM164.881 65.8513C172.68 65.8513 175.905 62.3267 175.905 54.6028C175.905 47.1038 173.355 43.1294 166.006 43.1294C162.107 43.1294 158.732 45.0791 155.208 49.8784V64.4264C158.357 65.2513 161.807 65.7013 164.881 65.8513ZM225.523 39.1549C225.898 41.8545 224.848 43.3543 222.448 43.3543H218.774C213.974 43.3543 210.15 44.9291 206.475 50.4784V71.1005C206.475 73.5752 205.051 75 202.576 75H198.976C196.502 75 195.077 73.5752 195.077 71.1005V37.6551C195.077 35.1804 196.502 33.7556 198.976 33.7556H201.076C203.401 33.7556 204.826 34.8055 205.426 37.1302L206.025 39.8298C209.7 35.2554 214.049 33.3807 220.048 33.3807H221.098C223.498 33.3807 224.848 34.6555 225.223 36.9802L225.523 39.1549ZM267.925 33.7556C270.4 33.7556 271.825 35.1804 271.825 37.6551V71.1005C271.825 73.5752 270.4 75 267.925 75H265.826C263.576 75 262.076 73.9501 261.476 71.7005L260.951 69.5257C257.127 73.9501 252.327 75.7499 245.728 75.7499C236.13 75.7499 230.805 70.1257 230.805 59.6271V37.6551C230.805 35.1804 232.23 33.7556 234.705 33.7556H238.304C240.779 33.7556 242.204 35.1804 242.204 37.6551V57.9023C242.204 63.0016 243.704 65.6263 249.403 65.6263C254.727 65.6263 258.177 62.7017 260.426 59.1772V37.6551C260.426 35.1804 261.851 33.7556 264.326 33.7556H267.925ZM306.689 33.0057C316.588 33.0057 322.962 37.3551 322.962 49.2035V71.1005C322.962 73.5752 321.537 75 319.062 75H315.463C312.988 75 311.564 73.5752 311.564 71.1005V50.4784C311.564 45.2291 309.689 43.2043 304.065 43.2043C300.315 43.2043 296.866 44.4042 292.816 49.1285V71.1005C292.816 73.5752 291.391 75 288.917 75H285.317C282.842 75 281.418 73.5752 281.418 71.1005V37.6551C281.418 35.1804 282.842 33.7556 285.317 33.7556H287.417C289.741 33.7556 291.241 34.8055 291.766 37.1302L292.216 38.8549C295.966 34.5805 300.54 33.0057 306.689 33.0057ZM412.384 33.0057C421.533 33.0057 427.757 37.2052 427.757 49.2035V71.1005C427.757 73.5752 426.332 75 423.858 75H420.258C417.784 75 416.359 73.5752 416.359 71.1005V50.4034C416.359 45.1541 414.109 43.2043 409.535 43.2043C404.585 43.2043 401.286 44.5542 397.611 48.7536V71.1005C397.611 73.5752 396.186 75 393.712 75H390.112C387.638 75 386.213 73.5752 386.213 71.1005V21.9073C386.213 19.4326 387.638 18.0078 390.112 18.0078H393.712C396.186 18.0078 397.611 19.4326 397.611 21.9073V38.48C401.361 34.4306 405.86 33.0057 412.384 33.0057Z" fill="white"/>
<g clip-path="url(#clip1_2708_54)">
<path d="M331.217 43.0289C331.668 47.0847 333.047 50.8947 334.836 53.0659C335.601 53.9945 336.925 54.9641 337.772 55.2099C338.264 55.3601 338.318 55.4284 338.51 56.1385C339.602 60.0987 341.432 64.2638 342.961 66.2848C344.136 67.828 346.307 69.2072 348.205 69.6032C349.339 69.8354 351.128 69.8627 352.083 69.6578C352.753 69.5213 352.766 69.5213 353.831 70.1768C356.344 71.7472 358.748 72.8533 361.41 73.6863C363.527 74.3555 365.316 74.6969 367.61 74.888C370.56 75.1339 371.803 74.8061 373.195 73.4269C374.821 71.7882 375.189 69.412 374.151 67.35C373.947 66.9403 372.554 65.3562 370.505 63.1713C368.675 61.2322 367.201 59.5798 367.214 59.5115C367.228 59.4296 367.364 58.9516 367.515 58.4327C368.075 56.5345 368.006 54.5271 367.337 52.5743C366.9 51.3453 366.286 50.3211 365.33 49.2696L364.551 48.4229L364.852 47.8904C365.139 47.3578 365.139 47.1939 365.179 40.284C365.22 33.4561 365.207 33.1966 364.934 32.3909L364.647 31.5579L365.398 30.7386C367.214 28.7311 368.197 25.604 367.815 23.0913C367.719 22.5041 367.528 21.6574 367.378 21.2341L367.119 20.4557L368.047 19.4861C371.202 16.2633 373.851 13.3137 374.151 12.7401C375.189 10.6644 374.821 8.28829 373.195 6.64958C371.803 5.27034 370.56 4.9426 367.61 5.1884C362.762 5.58442 358.311 7.11388 353.831 9.88603L352.766 10.5552L351.947 10.3913C350.868 10.1728 348.588 10.3094 347.509 10.6508C345.761 11.197 344.013 12.4124 342.961 13.7916C341.418 15.8263 339.602 19.9777 338.496 23.9516C338.387 24.4022 338.209 24.7436 338.114 24.7436C338.018 24.7436 337.499 24.9621 336.966 25.2216C334.222 26.6008 332.214 30.3289 331.408 35.5454C331.149 37.2797 331.04 41.4584 331.217 43.0289ZM333.989 37.1022C334.44 32.9645 335.492 30.1377 337.199 28.4171C338.25 27.3792 338.687 27.27 341.35 27.3929C348.601 27.707 355.361 29.3593 360.987 32.1861C362.599 33.0054 362.476 32.35 362.476 40.0246C362.476 45.9785 362.448 46.7023 362.243 46.9891C361.875 47.5353 358.092 49.1467 354.487 50.3211C350.062 51.755 345.952 52.4924 341.241 52.6836C339.206 52.7655 339.001 52.7519 338.414 52.4924C335.314 51.1268 333.252 43.9438 333.989 37.1022ZM341.883 55.4148C342.279 55.3874 343.439 55.2782 344.45 55.1963C349.707 54.7456 356.071 53.0523 360.946 50.8127C361.574 50.5123 362.175 50.2801 362.284 50.2801C362.599 50.2801 363.459 51.1268 364.005 51.9871C365.876 54.8549 365.343 58.8697 362.817 61.0273C362.298 61.4643 355.484 65.3289 353.19 66.476C351.51 67.309 349.147 67.2817 347.277 66.3941C345.488 65.5474 343.876 63.1986 342.374 59.2247C341.992 58.2279 341.2 55.8108 341.186 55.5786C341.172 55.524 341.5 55.4557 341.883 55.4148ZM341.514 23.378C342.661 19.5271 344.436 15.9766 345.87 14.6792C347.837 12.8767 350.977 12.4533 353.367 13.6824C356.139 15.1026 362.366 18.6394 362.858 19.0764C365.343 21.2614 365.849 25.2352 364.005 28.103C363.718 28.54 363.254 29.1135 362.967 29.3593C362.394 29.8646 362.325 29.8646 361.083 29.2364C356.699 27.0378 349.366 25.1533 343.794 24.8119C342.388 24.7163 341.172 24.6071 341.172 24.5524C341.172 24.5388 341.323 24.0062 341.514 23.378ZM359.307 66.2712C363.513 63.977 364.005 63.6766 364.934 62.7616L365.685 62.0379L368.621 65.1651C370.232 66.8857 371.666 68.5244 371.803 68.8112C372.335 69.9446 371.789 71.4195 370.642 71.9793C369.358 72.5939 365.275 72.1159 361.697 70.9142C359.485 70.1768 355.907 68.4971 355.921 68.1967C355.934 68.142 357.45 67.2817 359.307 66.2712ZM357.956 10.7327C360.919 9.2442 364.06 8.30195 367.187 7.94689C369.112 7.7284 369.959 7.76937 370.642 8.09711C371.789 8.657 372.335 10.1318 371.803 11.2653C371.666 11.552 370.232 13.2044 368.621 14.9251L365.685 18.0386L364.934 17.3148C364.005 16.3999 363.513 16.0995 359.307 13.8053C357.45 12.7947 355.948 11.9071 355.962 11.8388C355.989 11.7569 356.877 11.2653 357.956 10.7327Z" fill="#DD9868"/>
<path d="M336.625 42.3187C336.652 42.4826 336.871 42.783 337.117 42.9878C337.472 43.2883 337.636 43.3292 338.086 43.2746C338.441 43.22 338.755 43.0698 338.933 42.8649C339.192 42.5645 339.22 42.3051 339.302 39.9562C339.383 37.1431 339.616 35.6137 340.148 34.0432C340.339 33.4833 340.49 32.9098 340.49 32.7869C340.49 32.1041 339.793 31.435 339.083 31.435C338.223 31.435 337.663 32.3772 337.13 34.7124C336.652 36.8564 336.366 41.0077 336.625 42.3187Z" fill="#DD9868"/>
<path d="M338.032 47.7676C338.209 48.2046 338.837 48.6416 339.274 48.6416C339.821 48.6416 340.476 48.0134 340.572 47.3989C340.64 46.9756 340.585 46.8254 340.244 46.443C339.902 46.0606 339.739 45.9787 339.261 45.9787C338.783 45.9787 338.619 46.0606 338.291 46.4293C337.895 46.88 337.813 47.2487 338.032 47.7676Z" fill="#DD9868"/>
<path d="M346.225 61.164C347.495 63.6494 348.314 64.2776 350.322 64.2776C351.182 64.2776 351.619 64.2093 352.002 64.0181C352.998 63.5265 353.176 62.3385 352.357 61.7239C351.961 61.4235 351.687 61.3962 350.65 61.5464C350.226 61.6147 349.858 61.5874 349.68 61.5054C349.53 61.4235 349.079 60.7271 348.683 59.976C348.151 58.9791 347.85 58.5421 347.55 58.3919C346.758 57.9822 345.788 58.4738 345.597 59.3751C345.542 59.6892 345.665 60.0852 346.225 61.164Z" fill="#DD9868"/>
<path d="M345.638 20.92C345.788 21.3296 346.28 21.7393 346.703 21.8213C347.495 21.9578 347.878 21.6301 348.683 20.1006C349.079 19.3495 349.53 18.6531 349.68 18.5712C349.858 18.4892 350.213 18.4619 350.65 18.5302C351.032 18.5848 351.524 18.6258 351.742 18.6121C352.589 18.5985 353.149 17.5333 352.725 16.7276C352.398 16.0858 351.674 15.799 350.322 15.799C348.328 15.799 347.495 16.4272 346.239 18.8852C345.57 20.2099 345.488 20.483 345.638 20.92Z" fill="#DD9868"/>
</g>
<defs>
<clipPath id="clip0_2708_54">
<rect width="88" height="44" fill="white" transform="translate(0 31)"/>
</clipPath>
<clipPath id="clip1_2708_54">
<rect width="75" height="75" fill="white" transform="translate(317 75) rotate(-90)"/>
</clipPath>
</defs>
</svg>
