<svg width="141" height="48" viewBox="0 0 141 48" fill="none" xmlns="http://www.w3.org/2000/svg">
<g clip-path="url(#clip0_462_2995)">
<g filter="url(#filter0_iif_462_2995)">
<circle cx="24.1116" cy="23.8886" r="21.4326" fill="black"/>
</g>
<g filter="url(#filter1_iif_462_2995)">
<circle cx="24.1116" cy="23.8886" r="21.4326" fill="black"/>
</g>
<g style="mix-blend-mode:overlay">
<circle cx="24.1116" cy="23.8886" r="21.3209" stroke="white" stroke-width="0.223256"/>
</g>
<path d="M25.9237 10.7614C25.8998 10.5558 25.8413 10.2061 25.658 10.0967C25.4933 9.99791 22.8627 9.97388 22.5465 10.0299C22.3366 10.07 22.2675 10.1421 22.1798 10.3289C21.8716 11.314 22.318 18.3667 21.9592 18.6203C21.8423 18.7004 21.6351 18.703 21.4916 18.679C20.7901 18.5642 18.1755 14.9845 17.3305 14.8804C17.0435 14.8457 15.1277 16.6823 15.0028 16.9492C14.8859 17.2028 14.8806 17.4671 15.0613 17.686C15.9249 18.2706 18.21 21.2604 18.9992 21.4419C19.6422 21.5887 20.3384 21.4926 20.8831 21.1296C21.4172 20.7692 25.1664 16.9892 25.5039 16.4607C25.7537 16.0656 25.8839 15.6251 25.9264 15.158C26.0194 14.0982 26.0406 11.7971 25.9237 10.7614Z" fill="url(#paint0_linear_462_2995)"/>
<path d="M32.9439 30.3069C31.9155 29.5755 29.8855 26.7112 28.7588 26.5323C27.5339 26.3401 27.4356 26.7485 26.665 27.4025C25.4215 28.4623 23.7315 30.0773 22.6713 31.3053C22.1691 31.8872 22.1213 32.9897 22.0761 33.7665C22.0389 34.4312 21.9911 37.341 22.2355 37.7414C22.294 37.8348 22.3073 37.9015 22.4322 37.9443C22.6341 38.0137 25.1637 38.0163 25.4587 37.9629C25.6659 37.9256 25.7377 37.8535 25.8227 37.664C26.1309 36.6789 25.6872 29.6262 26.0432 29.3753C26.1602 29.2925 26.3674 29.2925 26.5109 29.3139C27.1699 29.4207 29.9785 33.0858 30.6401 33.1472C30.9483 33.1766 32.9678 31.2145 33.0448 30.9503C33.1139 30.7234 33.098 30.4938 32.9439 30.3069Z" fill="url(#paint1_linear_462_2995)"/>
<path d="M21.0212 26.9917C20.3171 26.068 17.5802 23.3158 16.6582 22.5977C16.5412 22.5043 15.9965 22.1359 15.9274 22.1359H10.3687C10.3448 22.1359 10.1349 22.3388 10.1056 22.4029C9.94088 22.7552 9.9276 25.8598 10.3687 25.8598H18.4411C18.6696 25.9239 18.9008 26.4231 18.7068 26.6553L15.0612 30.3071C14.8805 30.526 14.8858 30.7903 15.0028 31.0439C15.1462 31.3536 17.1178 33.2542 17.4872 33.1555C17.7237 33.0941 20.6572 30.1043 20.9601 29.7172C21.7626 28.6948 21.821 28.0434 21.0212 26.9917Z" fill="url(#paint2_linear_462_2995)"/>
<path d="M37.8969 22.5359C37.8411 22.4104 37.6763 22.293 37.5647 22.2049L29.8191 22.1408C29.4126 22.1408 29.1362 21.8338 29.2478 21.4307C29.4365 20.7607 32.6862 18.3448 33.0741 17.4052C33.1087 17.1703 33.0529 17.0635 32.9439 16.874C32.8509 16.7165 31.3496 15.2296 31.1477 15.0854C30.6535 14.7277 30.611 14.7971 30.1539 15.1495C29.5189 15.638 27.3108 17.8456 26.8484 18.4783C26.2426 19.3058 26.2931 20.136 26.9095 20.9396C27.6243 21.8712 30.417 24.6715 31.3443 25.3976C31.5782 25.5791 31.8279 25.7045 32.0751 25.8594H37.6365C38.0776 25.8594 38.0536 22.8936 37.8969 22.5359Z" fill="url(#paint3_linear_462_2995)"/>
</g>
<path d="M57.9633 34.2634L52 37.2296L64.5813 13.5H69.9691L73.5031 33.2747H69.0229L66.6186 18.0188H66.4641L57.9633 34.2634ZM59.9755 25.5019H70.5581L69.9981 28.7655H59.4155L59.9755 25.5019Z" fill="white"/>
<path d="M82.2593 13.5L78.9764 33.2747H74.7956L77.0897 16.4662L82.2593 13.5Z" fill="white"/>
<g opacity="0.8">
<path d="M101.168 21.2109H97.179C97.1913 20.6816 97.1236 20.2138 96.9759 19.8075C96.8281 19.3951 96.6065 19.0443 96.3111 18.755C96.0218 18.4657 95.6679 18.2472 95.2493 18.0994C94.8307 17.9455 94.3598 17.8686 93.8366 17.8686C92.8272 17.8686 91.9008 18.121 91.0575 18.6257C90.2143 19.1304 89.5033 19.8629 88.9247 20.8232C88.3461 21.7772 87.946 22.9313 87.7244 24.2855C87.509 25.5904 87.5213 26.683 87.7614 27.5632C88.0014 28.4434 88.4261 29.1082 89.0355 29.5575C89.651 30.0007 90.4174 30.2223 91.3345 30.2223C91.9008 30.2223 92.4394 30.1515 92.9503 30.0099C93.4612 29.8622 93.9259 29.6529 94.3445 29.3821C94.7692 29.1051 95.1385 28.7696 95.4524 28.3757C95.7725 27.9818 96.0218 27.5355 96.2003 27.0369H100.217C99.9643 27.9048 99.5703 28.742 99.0348 29.5483C98.5054 30.3546 97.8499 31.0748 97.0682 31.7088C96.2865 32.3366 95.397 32.8352 94.3999 33.2045C93.4027 33.5739 92.3101 33.7585 91.1222 33.7585C89.4048 33.7585 87.9306 33.3646 86.6996 32.5767C85.4747 31.7888 84.5914 30.6532 84.0497 29.1697C83.508 27.6863 83.4065 25.8982 83.745 23.8054C84.0836 21.7803 84.7453 20.063 85.7301 18.6534C86.7211 17.2377 87.9245 16.1636 89.3402 15.4311C90.7621 14.6986 92.2824 14.3324 93.9013 14.3324C95.0277 14.3324 96.0464 14.4863 96.9574 14.794C97.8684 15.1018 98.6439 15.5511 99.2841 16.142C99.9304 16.7268 100.417 17.4439 100.743 18.2933C101.069 19.1428 101.211 20.1153 101.168 21.2109ZM100.639 33.5L103.002 19.3182H106.815L106.4 21.7926H106.548C106.954 20.9124 107.499 20.2476 108.182 19.7983C108.871 19.3428 109.613 19.1151 110.407 19.1151C110.604 19.1151 110.81 19.1274 111.026 19.152C111.247 19.1705 111.444 19.2012 111.617 19.2443L111.026 22.7436C110.853 22.6821 110.607 22.6328 110.287 22.5959C109.973 22.5528 109.675 22.5312 109.391 22.5312C108.819 22.5312 108.287 22.6574 107.794 22.9098C107.302 23.156 106.886 23.5007 106.548 23.9439C106.215 24.3871 105.997 24.898 105.892 25.4766L104.572 33.5H100.639ZM115.743 33.777C114.291 33.777 113.087 33.4815 112.133 32.8906C111.179 32.2936 110.508 31.4503 110.12 30.3608C109.739 29.2652 109.674 27.9695 109.926 26.4737C110.173 25.0149 110.668 23.7346 111.413 22.6328C112.164 21.531 113.106 20.6723 114.238 20.0568C115.371 19.4413 116.633 19.1335 118.024 19.1335C118.959 19.1335 119.806 19.2843 120.563 19.5859C121.326 19.8814 121.96 20.3307 122.465 20.9339C122.97 21.531 123.314 22.2789 123.499 23.1776C123.69 24.0762 123.687 25.1288 123.49 26.3352L123.314 27.4155H111.348L111.727 24.978H120C120.092 24.4117 120.055 23.91 119.889 23.473C119.723 23.036 119.446 22.6944 119.058 22.4482C118.67 22.1958 118.193 22.0696 117.627 22.0696C117.048 22.0696 116.506 22.2112 116.002 22.4943C115.497 22.7775 115.072 23.1499 114.728 23.6115C114.389 24.067 114.171 24.5625 114.072 25.098L113.638 27.517C113.515 28.2618 113.54 28.8804 113.712 29.3729C113.89 29.8653 114.198 30.2346 114.635 30.4808C115.072 30.7209 115.626 30.8409 116.297 30.8409C116.734 30.8409 117.144 30.7794 117.525 30.6562C117.913 30.5331 118.258 30.3516 118.559 30.1115C118.861 29.8653 119.107 29.5606 119.298 29.1974L122.89 29.4375C122.557 30.3116 122.052 31.0748 121.375 31.7273C120.698 32.3736 119.883 32.8783 118.929 33.2415C117.981 33.5985 116.919 33.777 115.743 33.777ZM130.599 33.7585C129.171 33.7585 127.936 33.5215 126.896 33.0476C125.856 32.5736 125.087 31.9304 124.588 31.1179C124.089 30.2992 123.926 29.3759 124.099 28.348C124.228 27.5724 124.526 26.8615 124.994 26.2152C125.468 25.5627 126.05 25.018 126.739 24.581C127.429 24.1439 128.161 23.8639 128.937 23.7408V23.6207C127.976 23.4176 127.25 22.919 126.758 22.125C126.265 21.3248 126.108 20.4046 126.287 19.3643C126.459 18.3857 126.89 17.5178 127.579 16.7607C128.269 16.0036 129.143 15.4096 130.202 14.9787C131.266 14.5478 132.433 14.3324 133.701 14.3324C134.981 14.3324 136.089 14.5571 137.025 15.0064C137.96 15.4557 138.653 16.0682 139.102 16.8438C139.558 17.6193 139.702 18.4995 139.536 19.4844C139.364 20.5369 138.89 21.4418 138.114 22.1989C137.345 22.9498 136.443 23.4238 135.409 23.6207V23.7408C136.154 23.87 136.8 24.1593 137.348 24.6087C137.902 25.0518 138.308 25.6089 138.567 26.2798C138.825 26.9446 138.887 27.674 138.751 28.468C138.579 29.4775 138.114 30.3823 137.357 31.1825C136.6 31.9827 135.637 32.6136 134.467 33.0753C133.304 33.5308 132.014 33.7585 130.599 33.7585ZM130.986 30.8224C131.633 30.8224 132.214 30.7055 132.731 30.4716C133.255 30.2315 133.685 29.9022 134.024 29.4837C134.363 29.0589 134.575 28.5788 134.661 28.0433C134.753 27.4955 134.698 27.0154 134.495 26.603C134.292 26.1906 133.975 25.8674 133.544 25.6335C133.113 25.3996 132.596 25.2827 131.993 25.2827C131.371 25.2827 130.796 25.4089 130.266 25.6612C129.743 25.9074 129.306 26.246 128.955 26.6768C128.61 27.1077 128.392 27.6032 128.3 28.1634C128.213 28.6866 128.269 29.1513 128.466 29.5575C128.663 29.9576 128.977 30.2685 129.408 30.4901C129.845 30.7116 130.371 30.8224 130.986 30.8224ZM132.371 22.3743C132.919 22.3743 133.421 22.2635 133.876 22.0419C134.332 21.8142 134.707 21.5064 135.003 21.1186C135.304 20.7247 135.498 20.2784 135.584 19.7798C135.677 19.2812 135.64 18.8504 135.474 18.4872C135.307 18.1241 135.04 17.844 134.67 17.647C134.307 17.4439 133.861 17.3423 133.332 17.3423C132.778 17.3423 132.27 17.4531 131.808 17.6747C131.353 17.8902 130.974 18.1887 130.672 18.5703C130.371 18.9519 130.177 19.392 130.091 19.8906C130.011 20.3892 130.054 20.8262 130.22 21.2017C130.392 21.571 130.663 21.8603 131.033 22.0696C131.408 22.2727 131.854 22.3743 132.371 22.3743Z" fill="white"/>
</g>
<defs>
<filter id="filter0_iif_462_2995" x="-4.0186" y="0.223496" width="56.2605" height="51.7955" filterUnits="userSpaceOnUse" color-interpolation-filters="sRGB">
<feFlood flood-opacity="0" result="BackgroundImageFix"/>
<feBlend mode="normal" in="SourceGraphic" in2="BackgroundImageFix" result="shape"/>
<feColorMatrix in="SourceAlpha" type="matrix" values="0 0 0 0 0 0 0 0 0 0 0 0 0 0 0 0 0 0 127 0" result="hardAlpha"/>
<feOffset dx="6.69767" dy="6.69767"/>
<feGaussianBlur stdDeviation="6.69767"/>
<feComposite in2="hardAlpha" operator="arithmetic" k2="-1" k3="1"/>
<feColorMatrix type="matrix" values="0 0 0 0 1 0 0 0 0 0.2 0 0 0 0 0.693333 0 0 0 1 0"/>
<feBlend mode="normal" in2="shape" result="effect1_innerShadow_462_2995"/>
<feColorMatrix in="SourceAlpha" type="matrix" values="0 0 0 0 0 0 0 0 0 0 0 0 0 0 0 0 0 0 127 0" result="hardAlpha"/>
<feOffset dx="-6.69767" dy="6.69767"/>
<feGaussianBlur stdDeviation="6.69767"/>
<feComposite in2="hardAlpha" operator="arithmetic" k2="-1" k3="1"/>
<feColorMatrix type="matrix" values="0 0 0 0 0.0697199 0 0 0 0 0.282316 0 0 0 0 0.545264 0 0 0 1 0"/>
<feBlend mode="normal" in2="effect1_innerShadow_462_2995" result="effect2_innerShadow_462_2995"/>
<feGaussianBlur stdDeviation="1.11628" result="effect3_foregroundBlur_462_2995"/>
</filter>
<filter id="filter1_iif_462_2995" x="-4.0186" y="0.223496" width="56.2605" height="51.7955" filterUnits="userSpaceOnUse" color-interpolation-filters="sRGB">
<feFlood flood-opacity="0" result="BackgroundImageFix"/>
<feBlend mode="normal" in="SourceGraphic" in2="BackgroundImageFix" result="shape"/>
<feColorMatrix in="SourceAlpha" type="matrix" values="0 0 0 0 0 0 0 0 0 0 0 0 0 0 0 0 0 0 127 0" result="hardAlpha"/>
<feOffset dx="6.69767" dy="6.69767"/>
<feGaussianBlur stdDeviation="6.69767"/>
<feComposite in2="hardAlpha" operator="arithmetic" k2="-1" k3="1"/>
<feColorMatrix type="matrix" values="0 0 0 0 1 0 0 0 0 0.2 0 0 0 0 0.693333 0 0 0 1 0"/>
<feBlend mode="normal" in2="shape" result="effect1_innerShadow_462_2995"/>
<feColorMatrix in="SourceAlpha" type="matrix" values="0 0 0 0 0 0 0 0 0 0 0 0 0 0 0 0 0 0 127 0" result="hardAlpha"/>
<feOffset dx="-6.69767" dy="6.69767"/>
<feGaussianBlur stdDeviation="6.69767"/>
<feComposite in2="hardAlpha" operator="arithmetic" k2="-1" k3="1"/>
<feColorMatrix type="matrix" values="0 0 0 0 0.0697199 0 0 0 0 0.282316 0 0 0 0 0.545264 0 0 0 1 0"/>
<feBlend mode="normal" in2="effect1_innerShadow_462_2995" result="effect2_innerShadow_462_2995"/>
<feGaussianBlur stdDeviation="1.11628" result="effect3_foregroundBlur_462_2995"/>
</filter>
<linearGradient id="paint0_linear_462_2995" x1="14.9196" y1="15.754" x2="26.0039" y2="15.754" gradientUnits="userSpaceOnUse">
<stop stop-color="#00C6FF"/>
<stop offset="1" stop-color="#0072FF"/>
</linearGradient>
<linearGradient id="paint1_linear_462_2995" x1="22.0457" y1="32.2423" x2="33.0839" y2="32.2423" gradientUnits="userSpaceOnUse">
<stop stop-color="#00C6FF"/>
<stop offset="1" stop-color="#0072FF"/>
</linearGradient>
<linearGradient id="paint2_linear_462_2995" x1="9.99995" y1="27.6475" x2="21.5923" y2="27.6475" gradientUnits="userSpaceOnUse">
<stop stop-color="#00C6FF"/>
<stop offset="1" stop-color="#0072FF"/>
</linearGradient>
<linearGradient id="paint3_linear_462_2995" x1="26.4197" y1="20.3541" x2="38" y2="20.3541" gradientUnits="userSpaceOnUse">
<stop stop-color="#00C6FF"/>
<stop offset="1" stop-color="#0072FF"/>
</linearGradient>
<clipPath id="clip0_462_2995">
<rect width="48" height="48" fill="white"/>
</clipPath>
</defs>
</svg>
